<?xml version="1.0" encoding="UTF-8"?>
<!-- Generated by jsxcad -->
<!DOCTYPE svg PUBLIC "-//W3C//DTD SVG 1.1 Tiny//EN" "http://www.w3.org/Graphics/SVG/1.1/DTD/svg11-tiny.dtd">
<svg baseProfile="tiny" height="3.9974436462187066mm" width="1.623178251121077mm" viewBox="-0.8106782511210766 -2.0189537985029693 1.623178251121077 3.9974436462187066" version="1.1" stroke="black" stroke-width=".1" fill="none" xmlns="http://www.w3.org/2000/svg">
<path fill="#bababa" stroke="#bababa" d="M-0.12721442385910336 0.39385927432149354 L-0.0848356309650053 0.405995042205227 L-0.037002775208140604 0.41304807955966627 L0.012077294685990338 0.41491267564187445 L0.06102212051868802 0.4101427786873886 L0.1078530502190765 0.40026227785309654 L0.15182884748102138 0.3845266654132981 L0.19130434782608693 0.363636283381152 L0.2254428341384863 0.3387306071402296 L0.25285229725562747 0.3097303325429566 L0.27329192546583847 0.2781756296132813 L0.28546332894158977 0.24463635417230561 L0.28985507246376807 0.20980710659898474 L0.28985507246376807 -0.18645685279187812 L0.28546332894158977 -0.22128610036519902 L0.27329192546583847 -0.25482537580617465 L0.25285229725562747 -0.28638007873585 L0.2254428341384863 -0.3153803533331231 L0.19130434782608693 -0.3402860295740454 L0.15182884748102138 -0.3611764116061915 L0.1078530502190765 -0.37691202404598995 L0.06102212051868802 -0.386792524880282 L0.012077294685990338 -0.3915624218347678 L-0.037002775208140604 -0.38969782575255973 L-0.0848356309650053 -0.38264478839812044 L-0.13043478260869565 -0.369586825151601 L-0.1721014492753623 -0.3515418229971308 L-0.20933977455716585 -0.32845301597541715 L-0.239880059970015 -0.30131597145589634 L-0.2642796248934356 -0.2709120871036562 L-0.2805049088359046 -0.2383226288716893 L-0.28852546203962237 -0.20403733013841152 L-0.28852546203962237 0.22738758394551814 L-0.2805049088359046 0.26167288267879585 L-0.2642796248934356 0.2942623409107628 L-0.239880059970015 0.3246662252630029 L-0.20933977455716585 0.3518032697825237 L-0.1721014492753623 0.3748920768042374 L-0.13043478260869565 0.3929370789587076 z"/>
<path fill="#bababa" stroke="#bababa" d="M0.061022120518688015 0.41014277868738863 L0.012077294685990336 0.41491267564187445 L0.012077294685990336 0.29125785330684906 L0.061022120518688015 0.28648795635236324 z"/>
<path fill="#bababa" stroke="#bababa" d="M0.10785305021907649 0.40026227785309654 L0.06102212051868801 0.4101427786873886 L0.06102212051868801 0.28648795635236324 L0.10785305021907649 0.2766074555180712 z"/>
<path fill="#bababa" stroke="#bababa" d="M0.1392950787526846 0.3890115534516975 L0.10785305021907649 0.40026227785309654 L0.10785305021907649 0.2766074555180712 L0.15182884748102135 0.26087184307827277 L0.15182884748102135 0.3845266654132981 z"/>
<path fill="#bababa" stroke="#bababa" d="M0.15182884748102138 0.26087184307827277 L0.19130434782608693 0.23998146104612667 L0.19130434782608693 0.363636283381152 L0.15182884748102138 0.3845266654132981 z"/>
<path fill="#bababa" stroke="#bababa" d="M0.20552871712291998 0.3532589182807677 L0.19130434782608693 0.363636283381152 L0.19130434782608693 0.23998146104612664 L0.2254428341384863 0.2150757848052043 L0.2254428341384863 0.3387306071402297 z"/>
<path fill="#bababa" stroke="#bababa" d="M0.25285229725562747 0.30973033254295657 L0.2254428341384863 0.3387306071402296 L0.2254428341384863 0.2150757848052043 L0.25285229725562747 0.18607551020793126 z"/>
<path fill="#bababa" stroke="#bababa" d="M0.27329192546583847 0.2781756296132813 L0.25285229725562747 0.30973033254295657 L0.25285229725562747 0.18607551020793123 L0.27329192546583847 0.1545208072782559 z"/>
<path fill="#bababa" stroke="#bababa" d="M0.27329192546583847 0.2781756296132813 L0.27329192546583847 0.1545208072782559 L0.2854633289415897 0.12098153183728026 L0.28546332894158977 0.24463635417230561 z"/>
<path fill="#bababa" stroke="#bababa" d="M0.289855072463768 0.20980710659898472 L0.28546332894158977 0.24463635417230561 L0.2854633289415897 0.12098153183728026 L0.289855072463768 0.08615228426395936 z"/>
<path fill="#bababa" stroke="#bababa" d="M0.28985507246376807 0.04469712351945853 L0.28985507246376807 0.20980710659898474 L0.28985507246376807 0.08615228426395938 L0.28985507246376807 -0.3101116751269035 L0.28985507246376807 -0.18645685279187812 z"/>
<path fill="#bababa" stroke="#bababa" d="M0.28788358146848614 -0.20209199806310937 L0.28985507246376807 -0.18645685279187812 L0.28985507246376807 -0.31011167512690346 L0.28546332894158977 -0.34494092270022436 L0.28546332894158977 -0.22128610036519902 z"/>
<path fill="#bababa" stroke="#bababa" d="M0.28546332894158977 -0.34494092270022436 L0.27329192546583847 -0.3784801981412 L0.27329192546583847 -0.25482537580617465 L0.28546332894158977 -0.22128610036519902 z"/>
<path fill="#bababa" stroke="#bababa" d="M0.2647754137115839 -0.2679731686935394 L0.27329192546583847 -0.25482537580617465 L0.27329192546583847 -0.37848019814120004 L0.25285229725562747 -0.4100349010708754 L0.25285229725562747 -0.28638007873585 z"/>
<path fill="#bababa" stroke="#bababa" d="M0.24143168762348532 -0.29846352648471375 L0.25285229725562747 -0.28638007873585003 L0.25285229725562747 -0.41003490107087537 L0.22544283413848634 -0.4390351756681484 L0.22544283413848631 -0.3153803533331231 z"/>
<path fill="#bababa" stroke="#bababa" d="M0.2112184648416533 -0.3257577184335073 L0.22544283413848631 -0.31538035333312303 L0.22544283413848634 -0.4390351756681484 L0.19130434782608696 -0.4639408519090708 L0.19130434782608693 -0.3402860295740454 z"/>
<path fill="#bababa" stroke="#bababa" d="M0.17485622268230971 -0.34899035542077295 L0.1913043478260871 -0.3402860295740454 L0.19130434782608705 -0.46394085190907075 L0.15182884748102152 -0.48483123394121685 L0.15182884748102154 -0.36117641160619146 z"/>
<path fill="#bababa" stroke="#bababa" d="M0.11403920016203635 -0.37469846877109486 L0.15182884748102135 -0.36117641160619157 L0.15182884748102135 -0.48483123394121697 L0.10785305021907649 -0.5005668463810153 L0.10785305021907649 -0.37691202404599 z"/>
<path fill="#bababa" stroke="#bababa" d="M0.07664843702245772 -0.3834956474909116 L0.10785305021907649 -0.37691202404599 L0.10785305021907649 -0.5005668463810155 L0.06102212051868801 -0.5104473472153075 L0.06102212051868801 -0.38679252488028204 z"/>
<path fill="#bababa" stroke="#bababa" d="M0.04062844308839731 -0.38877998194465124 L0.061022120518688015 -0.38679252488028215 L0.061022120518688015 -0.5104473472153075 L0.012077294685990336 -0.5152172441697933 L0.012077294685990336 -0.39156242183476797 z"/>
<path fill="#bababa" stroke="#bababa" d="M-0.0370027752081406 -0.5133526480875852 L-0.0370027752081406 -0.38969782575255985 L0.012077294685990336 -0.3915624218347679 L0.012077294685990336 -0.5152172441697932 z"/>
<path fill="#bababa" stroke="#bababa" d="M-0.08483563096500527 -0.5062996107331458 L-0.08483563096500527 -0.38264478839812044 L-0.0370027752081406 -0.38969782575255973 L-0.0370027752081406 -0.5133526480875851 z"/>
<path fill="#bababa" stroke="#bababa" d="M-0.08483563096500528 -0.38264478839812055 L-0.08483563096500528 -0.5062996107331459 L-0.13043478260869562 -0.4932416474866265 L-0.13043478260869562 -0.3695868251516012 z"/>
<path fill="#bababa" stroke="#bababa" d="M-0.17210144927536228 -0.4751966453321564 L-0.17210144927536228 -0.3515418229971309 L-0.13043478260869562 -0.3695868251516011 L-0.13043478260869562 -0.4932416474866266 z"/>
<path fill="#bababa" stroke="#bababa" d="M-0.17210144927536236 -0.3515418229971309 L-0.17210144927536233 -0.47519664533215616 L-0.20933977455716585 -0.4521078383104425 L-0.20933977455716593 -0.3284530159754171 z"/>
<path fill="#bababa" stroke="#bababa" d="M-0.23988005997001505 -0.4249707937909217 L-0.23988005997001505 -0.30131597145589634 L-0.20933977455716588 -0.3284530159754171 L-0.2093397745571659 -0.45210783831044243 z"/>
<path fill="#bababa" stroke="#bababa" d="M-0.239880059970015 -0.3013159714558964 L-0.239880059970015 -0.42497079379092173 L-0.2642796248934356 -0.3945669094386816 L-0.2642796248934356 -0.2709120871036562 z"/>
<path fill="#bababa" stroke="#bababa" d="M-0.2642796248934356 -0.3945669094386816 L-0.2805049088359046 -0.36197745120671465 L-0.2805049088359046 -0.23832262887168928 L-0.2642796248934356 -0.2709120871036562 z"/>
<path fill="#bababa" stroke="#bababa" d="M-0.28852546203962237 -0.32769215247343686 L-0.28852546203962237 -0.20403733013841152 L-0.2805049088359046 -0.2383226288716893 L-0.2805049088359046 -0.36197745120671465 z"/>
<path fill="#bababa" stroke="#bababa" d="M-0.28852546203962237 -0.3276921524734369 L-0.28852546203962237 0.10373276161049277 L-0.28852546203962237 0.22738758394551814 L-0.28852546203962237 -0.20403733013841155 z"/>
<path fill="#bababa" stroke="#bababa" d="M-0.2885254620396223 0.2273875839455181 L-0.2885254620396223 0.10373276161049276 L-0.2805049088359046 0.13801806034377054 L-0.28050490883590457 0.2616728826787959 z"/>
<path fill="#bababa" stroke="#bababa" d="M-0.267192521047052 0.28841161386839254 L-0.2805049088359046 0.2616728826787959 L-0.28050490883590457 0.13801806034377057 L-0.2642796248934356 0.17060751857573744 L-0.2642796248934356 0.2942623409107628 z"/>
<path fill="#bababa" stroke="#bababa" d="M-0.23988005997001496 0.3246662252630029 L-0.2642796248934356 0.2942623409107628 L-0.2642796248934356 0.17060751857573744 L-0.239880059970015 0.2010114029279776 z"/>
<path fill="#bababa" stroke="#bababa" d="M-0.21609032956884022 0.34580495937360367 L-0.239880059970015 0.3246662252630029 L-0.239880059970015 0.2010114029279776 L-0.20933977455716585 0.22814844744749838 L-0.20933977455716585 0.3518032697825237 z"/>
<path fill="#bababa" stroke="#bababa" d="M-0.19018676946753812 0.3636786705975116 L-0.20933977455716585 0.35180326978252374 L-0.20933977455716585 0.22814844744749835 L-0.1721014492753623 0.251237254469212 L-0.1721014492753623 0.3748920768042374 z"/>
<path fill="#bababa" stroke="#bababa" d="M-0.15474033816425117 0.38241082770193335 L-0.17210144927536228 0.3748920768042375 L-0.17210144927536228 0.2512372544692121 L-0.13043478260869562 0.26928225662368227 L-0.13043478260869562 0.39293707895870766 z"/>
<path fill="#bababa" stroke="#bababa" d="M-0.08483563096500528 0.40599504220522703 L-0.13043478260869562 0.39293707895870766 L-0.13043478260869562 0.26928225662368227 L-0.08483563096500528 0.2823402198702017 z"/>
<path fill="#bababa" stroke="#bababa" d="M-0.08483563096500527 0.2823402198702017 L-0.0370027752081406 0.289393257224641 L-0.0370027752081406 0.4130480795596663 L-0.08483563096500527 0.40599504220522703 z"/>
<path fill="#bababa" stroke="#bababa" d="M-0.0059618403797991 0.4142273526453374 L-0.0370027752081406 0.4130480795596663 L-0.0370027752081406 0.289393257224641 L0.012077294685990336 0.29125785330684906 L0.012077294685990336 0.41491267564187445 z"/>
<path fill="#bababa" stroke="#bababa" d="M0.1078530502190765 0.27660745551807114 L0.06102212051868802 0.28648795635236324 L0.012077294685990338 0.29125785330684906 L-0.037002775208140604 0.289393257224641 L-0.0848356309650053 0.28234021987020164 L-0.13043478260869565 0.26928225662368227 L-0.1721014492753623 0.251237254469212 L-0.20933977455716585 0.22814844744749838 L-0.239880059970015 0.2010114029279776 L-0.2642796248934356 0.17060751857573744 L-0.2805049088359046 0.13801806034377057 L-0.28852546203962237 0.10373276161049276 L-0.28852546203962237 -0.32769215247343686 L-0.2805049088359046 -0.36197745120671465 L-0.2642796248934356 -0.3945669094386816 L-0.239880059970015 -0.4249707937909217 L-0.20933977455716585 -0.4521078383104425 L-0.1721014492753623 -0.4751966453321562 L-0.13043478260869565 -0.4932416474866264 L-0.0848356309650053 -0.5062996107331458 L-0.037002775208140604 -0.5133526480875851 L0.012077294685990338 -0.5152172441697932 L0.06102212051868802 -0.5104473472153074 L0.1078530502190765 -0.5005668463810153 L0.15182884748102138 -0.4848312339412169 L0.19130434782608693 -0.4639408519090708 L0.2254428341384863 -0.4390351756681484 L0.25285229725562747 -0.41003490107087537 L0.27329192546583847 -0.37848019814120004 L0.28546332894158977 -0.34494092270022436 L0.28985507246376807 -0.31011167512690346 L0.28985507246376807 0.08615228426395936 L0.28546332894158977 0.12098153183728026 L0.27329192546583847 0.15452080727825593 L0.25285229725562747 0.18607551020793123 L0.2254428341384863 0.2150757848052043 L0.19130434782608693 0.23998146104612667 L0.15182884748102138 0.26087184307827277 z"/>
<path fill="#bababa" stroke="#bababa" d="M0.7483552631578947 1.6504899887196838 L0.6485875706214689 1.723666511405744 L0.7140151515151515 1.7018732067976161 z"/>
<path fill="#bababa" stroke="#bababa" d="M-0.02083333333333333 2.001840101522842 L0.060185185185185175 1.9996623115674508 L-0.019239578561612455 2.018953798502968 z"/>
<path fill="#bababa" stroke="#bababa" d="M-0.8027108433734941 -1.489793781725888 L-0.7021128395635012 -1.3958244859330633 L-0.787109375 -1.5449311392194387 z"/>
<path fill="#bababa" stroke="#bababa" d="M0.7071500729599282 1.5691990019788347 L0.6953094205754828 1.6212758731553132 L0.7959183673469387 1.540271323371702 z"/>
<path fill="#bababa" stroke="#bababa" d="M-0.7871093750000001 -1.5449311392194387 L-0.7021128395635012 -1.3958244859330635 L-0.6864406779661016 -1.4477877348451569 z"/>
<path fill="#bababa" stroke="#bababa" d="M0.5234297108673976 1.85704207175428 L0.6229166666666665 1.796505620014503 L0.5720338983050846 1.8153201374384242 z"/>
<path fill="#bababa" stroke="#bababa" d="M0.5668604651162789 1.8389414128595598 L0.6229166666666665 1.796505620014503 L0.5234297108673976 1.85704207175428 z"/>
<path fill="#bababa" stroke="#bababa" d="M-0.6309707241910631 1.747717059676106 L-0.6627703097603741 1.698401288980313 L-0.7312500000000001 1.6768759655705139 z"/>
<path fill="#bababa" stroke="#bababa" d="M-0.7632575757575756 1.624024655547498 L-0.662770309760374 1.698401288980313 L-0.6864406779661016 1.647787734845157 z"/>
<path fill="#bababa" stroke="#bababa" d="M-0.7021128395635012 1.5958244859330635 L-0.787109375 1.5682813930265453 L-0.6864406779661016 1.647787734845157 z"/>
<path fill="#bababa" stroke="#bababa" d="M-0.4961479198767333 1.8765966281248945 L-0.5475880052151237 1.837052969686541 L-0.5958333333333332 1.8178604060913703 z"/>
<path fill="#bababa" stroke="#bababa" d="M-0.6469907407407406 1.774539605713611 L-0.5932203389830507 1.793602974139297 L-0.6930147058823528 1.7268704480247183 z"/>
<path fill="#bababa" stroke="#bababa" d="M0.7959183673469389 -1.5169210695645954 L0.7771739130434782 -1.5726522842639592 L0.695309420575483 -1.4212758731553135 z"/>
<path fill="#bababa" stroke="#bababa" d="M-0.6864406779661016 1.647787734845157 L-0.787109375 1.5682813930265456 L-0.7632575757575758 1.6240246555474978 z"/>
<path fill="#bababa" stroke="#bababa" d="M0.613676212741087 -1.571359971535106 L0.6711956521739129 -1.72695510786802 L0.5720338983050846 -1.615320137438424 z"/>
<path fill="#bababa" stroke="#bababa" d="M0.7118644067796609 1.515228426395939 L0.7071500729599282 1.5691990019788347 L0.8076636904761904 1.484397208121827 z"/>
<path fill="#bababa" stroke="#bababa" d="M-0.6930147058823528 1.7268704480247183 L-0.5932203389830507 1.793602974139297 L-0.630970724191063 1.747717059676106 z"/>
<path fill="#bababa" stroke="#bababa" d="M0.6229166666666665 -1.7731553662073962 L0.5668604651162789 -1.8155911590524532 L0.5234297108673976 -1.6570420717542798 z"/>
<path fill="#bababa" stroke="#bababa" d="M0.5058962264150941 -1.8535036415802246 L0.4401041666666665 -1.8864999999999994 L0.40986132511556234 -1.7273673672107808 z"/>
<path fill="#bababa" stroke="#bababa" d="M-0.18055555555555552 -1.9637478849407781 L-0.2585227272727272 -1.9482300293881907 L-0.16949152542372878 -1.8041383463821732 z"/>
<path fill="#bababa" stroke="#bababa" d="M0.4401041666666665 1.9098502538071063 L0.3444505194095133 1.9559881269895893 L0.37142857142857133 1.937958262831359 z"/>
<path fill="#bababa" stroke="#bababa" d="M0.3444505194095133 -1.7559881269895894 L0.4401041666666665 -1.8864999999999994 L0.37142857142857133 -1.914608009024252 z"/>
<path fill="#bababa" stroke="#bababa" d="M0.5720338983050846 -1.615320137438424 L0.6711956521739129 -1.72695510786802 L0.6229166666666665 -1.7731553662073964 z"/>
<path fill="#bababa" stroke="#bababa" d="M-0.6930147058823528 1.7268704480247186 L-0.630970724191063 1.747717059676106 L-0.7312499999999998 1.676875965570514 z"/>
<path fill="#bababa" stroke="#bababa" d="M0.46833184656556637 1.8947475423669884 L0.5058962264150941 1.8768538953873315 L0.5668604651162789 1.8389414128595598 z"/>
<path fill="#bababa" stroke="#bababa" d="M0.6953094205754828 -1.4212758731553132 L0.7771739130434783 -1.5726522842639592 L0.676271186440678 -1.4735421147724335 z"/>
<path fill="#bababa" stroke="#bababa" d="M-0.6469907407407406 -1.7511893519065043 L-0.5475880052151237 -1.6370529696865408 L-0.5958333333333332 -1.7945101522842637 z"/>
<path fill="#bababa" stroke="#bababa" d="M-0.16949152542372878 -1.8041383463821732 L-0.2585227272727272 -1.9482300293881907 L-0.2420338983050847 -1.789322894261378 z"/>
<path fill="#bababa" stroke="#bababa" d="M0.7140151515151514 1.7018732067976161 L0.6485875706214688 1.7236665114057441 L0.613676212741087 1.7713599715351063 z"/>
<path fill="#bababa" stroke="#bababa" d="M-0.802710843373494 1.5131440355329946 L-0.7021128395635012 1.5958244859330635 L-0.7101449275362319 1.541740288085782 z"/>
<path fill="#bababa" stroke="#bababa" d="M-0.7101449275362318 -1.341740288085782 L-0.7021128395635012 -1.3958244859330635 L-0.8027108433734939 -1.489793781725888 z"/>
<path fill="#bababa" stroke="#bababa" d="M0.5234297108673976 -1.6570420717542798 L0.5720338983050846 -1.615320137438424 L0.6229166666666665 -1.7731553662073962 z"/>
<path fill="#bababa" stroke="#bababa" d="M0.13182674199623348 2.0097951553737494 L0.21959459459459452 1.9805461552923478 L0.2060660124888492 1.9970526953678798 z"/>
<path fill="#bababa" stroke="#bababa" d="M0.5668604651162789 1.8389414128595598 L0.5234297108673976 1.85704207175428 L0.46833184656556637 1.8947475423669884 z"/>
<path fill="#bababa" stroke="#bababa" d="M0.13182674199623348 2.0097951553737494 L0.05694915254237287 2.0168461609627713 L0.14130434782608692 1.992566931390208 z"/>
<path fill="#bababa" stroke="#bababa" d="M0.7140151515151514 -1.6785229529905095 L0.6711956521739129 -1.7269551078680199 L0.613676212741087 -1.571359971535106 z"/>
<path fill="#bababa" stroke="#bababa" d="M0.4683318465655663 1.8947475423669884 L0.40986132511556234 1.927367367210781 L0.5058962264150941 1.8768538953873315 z"/>
<path fill="#bababa" stroke="#bababa" d="M-0.47395833333333326 1.8940394987309643 L-0.439680957128614 1.911012647337176 L-0.536830357142857 1.858105964467005 z"/>
<path fill="#bababa" stroke="#bababa" d="M-0.24203389830508468 -1.7893228942613777 L-0.2585227272727272 -1.9482300293881907 L-0.3345588235294117 -1.9277601522842636 z"/>
<path fill="#bababa" stroke="#bababa" d="M0.13182674199623348 -1.8097951553737492 L0.2060660124888492 -1.7970526953678796 L0.21959459459459452 -1.9571959014852411 z"/>
<path fill="#bababa" stroke="#bababa" d="M0.7959183673469388 1.5402713233717018 L0.6953094205754828 1.6212758731553134 L0.7771739130434782 1.5960025380710656 z"/>
<path fill="#bababa" stroke="#bababa" d="M-0.7632575757575757 -1.6006744017403913 L-0.787109375 -1.5449311392194387 L-0.6864406779661018 -1.4477877348451569 z"/>
<path fill="#bababa" stroke="#bababa" d="M0.060185185185185175 -1.976312057760344 L-0.02083333333333333 -1.9784898477157358 L-0.019239578561612455 -1.8189537985029678 z"/>
<path fill="#bababa" stroke="#bababa" d="M0.6711956521739129 1.7503053616751267 L0.7140151515151514 1.7018732067976161 L0.613676212741087 1.7713599715351063 z"/>
<path fill="#bababa" stroke="#bababa" d="M-0.49614791987673335 -1.6765966281248943 L-0.536830357142857 -1.8347557106598984 L-0.5958333333333332 -1.7945101522842635 z"/>
<path fill="#bababa" stroke="#bababa" d="M0.14130434782608692 1.992566931390208 L0.21959459459459454 1.9805461552923478 L0.13182674199623348 2.0097951553737494 z"/>
<path fill="#bababa" stroke="#bababa" d="M0.8076636904761906 -1.4610469543147204 L0.7071500729599282 -1.3691990019788347 L0.711864406779661 -1.3152284263959388 z"/>
<path fill="#bababa" stroke="#bababa" d="M-0.37817796610169485 1.9426317724261453 L-0.47395833333333326 1.8940394987309643 L-0.4062499999999999 1.9251818950930626 z"/>
<path fill="#bababa" stroke="#bababa" d="M-0.6469907407407406 1.774539605713611 L-0.5475880052151237 1.837052969686541 L-0.5932203389830507 1.793602974139297 z"/>
<path fill="#bababa" stroke="#bababa" d="M0.2768361581920903 -1.7791860059682023 L0.3444505194095133 -1.7559881269895892 L0.3714285714285713 -1.9146080090242523 z"/>
<path fill="#bababa" stroke="#bababa" d="M-0.019239578561612455 -1.8189537985029678 L-0.02083333333333333 -1.9784898477157356 L-0.10156249999999997 -1.9734903994703155 z"/>
<path fill="#bababa" stroke="#bababa" d="M0.7071500729599282 -1.3691990019788347 L0.7959183673469389 -1.5169210695645954 L0.6953094205754828 -1.4212758731553132 z"/>
<path fill="#bababa" stroke="#bababa" d="M0.6762711864406781 1.6735421147724334 L0.648587570621469 1.723666511405744 L0.7483552631578947 1.6504899887196838 z"/>
<path fill="#bababa" stroke="#bababa" d="M0.4683318465655663 -1.6947475423669882 L0.5668604651162789 -1.8155911590524532 L0.5058962264150941 -1.8535036415802248 z"/>
<path fill="#bababa" stroke="#bababa" d="M-0.8027108433734941 1.5131440355329944 L-0.7871093750000001 1.5682813930265453 L-0.7021128395635012 1.5958244859330635 z"/>
<path fill="#bababa" stroke="#bababa" d="M0.13182674199623348 -1.8097951553737492 L0.21959459459459454 -1.9571959014852411 L0.14130434782608692 -1.969216677583101 z"/>
<path fill="#bababa" stroke="#bababa" d="M-0.6930147058823528 -1.7035201942176117 L-0.630970724191063 -1.5477170596761058 L-0.5932203389830507 -1.5936029741392967 z"/>
<path fill="#bababa" stroke="#bababa" d="M0.14130434782608692 1.992566931390208 L0.05694915254237287 2.0168461609627713 L0.06018518518518517 1.9996623115674508 z"/>
<path fill="#bababa" stroke="#bababa" d="M0.40986132511556234 -1.727367367210781 L0.4401041666666666 -1.8864999999999996 L0.3444505194095133 -1.7559881269895892 z"/>
<path fill="#bababa" stroke="#bababa" d="M0.2060660124888492 1.9970526953678798 L0.21959459459459454 1.9805461552923478 L0.29725609756097554 1.9621893050936459 z"/>
<path fill="#bababa" stroke="#bababa" d="M-0.5932203389830507 -1.5936029741392967 L-0.6469907407407406 -1.751189351906504 L-0.6930147058823528 -1.7035201942176117 z"/>
<path fill="#bababa" stroke="#bababa" d="M0.7771739130434782 1.5960025380710656 L0.6953094205754828 1.6212758731553134 L0.6762711864406781 1.6735421147724332 z"/>
<path fill="#bababa" stroke="#bababa" d="M-0.5958333333333332 -1.7945101522842637 L-0.5475880052151237 -1.6370529696865408 L-0.49614791987673335 -1.6765966281248943 z"/>
<path fill="#bababa" stroke="#bababa" d="M0.05694915254237287 -1.816846160962771 L0.060185185185185175 -1.9763120577603441 L-0.019239578561612455 -1.818953798502968 z"/>
<path fill="#bababa" stroke="#bababa" d="M0.5058962264150941 1.8768538953873315 L0.40986132511556234 1.927367367210781 L0.4401041666666666 1.9098502538071063 z"/>
<path fill="#bababa" stroke="#bababa" d="M-0.5958333333333332 1.8178604060913703 L-0.5475880052151237 1.837052969686541 L-0.6469907407407406 1.774539605713611 z"/>
<path fill="#bababa" stroke="#bababa" d="M0.21959459459459454 -1.957195901485241 L0.2060660124888492 -1.7970526953678796 L0.29725609756097554 -1.938839051286539 z"/>
<path fill="#bababa" stroke="#bababa" d="M0.060185185185185175 1.9996623115674508 L0.05694915254237287 2.0168461609627713 L-0.019239578561612455 2.018953798502968 z"/>
<path fill="#bababa" stroke="#bababa" d="M0.7140151515151514 -1.6785229529905095 L0.613676212741087 -1.571359971535106 L0.6485875706214688 -1.523666511405744 z"/>
<path fill="#bababa" stroke="#bababa" d="M-0.16949152542372878 2.004138346382173 L-0.25852272727272724 1.9715802831952975 L-0.18055555555555552 1.9870981387478848 z"/>
<path fill="#bababa" stroke="#bababa" d="M0.8076636904761905 1.484397208121827 L0.707150072959928 1.5691990019788349 L0.7959183673469389 1.5402713233717018 z"/>
<path fill="#bababa" stroke="#bababa" d="M-0.37817796610169485 1.9426317724261453 L-0.43968095712861405 1.911012647337176 L-0.4739583333333332 1.8940394987309643 z"/>
<path fill="#bababa" stroke="#bababa" d="M-0.43968095712861405 -1.7110126473371758 L-0.536830357142857 -1.8347557106598982 L-0.49614791987673335 -1.6765966281248943 z"/>
<path fill="#bababa" stroke="#bababa" d="M-0.536830357142857 1.858105964467005 L-0.43968095712861405 1.911012647337176 L-0.49614791987673335 1.8765966281248945 z"/>
<path fill="#bababa" stroke="#bababa" d="M-0.47395833333333326 -1.8706892449238575 L-0.536830357142857 -1.8347557106598984 L-0.43968095712861405 -1.711012647337176 z"/>
<path fill="#bababa" stroke="#bababa" d="M-0.7632575757575757 -1.6006744017403913 L-0.6627703097603741 -1.4984012889803129 L-0.73125 -1.6535257117634075 z"/>
<path fill="#bababa" stroke="#bababa" d="M0.6485875706214689 -1.5236665114057437 L0.676271186440678 -1.4735421147724335 L0.7483552631578948 -1.627139734912577 z"/>
<path fill="#bababa" stroke="#bababa" d="M0.29725609756097554 1.9621893050936459 L0.3714285714285713 1.937958262831359 L0.2768361581920903 1.9791860059682025 z"/>
<path fill="#bababa" stroke="#bababa" d="M-0.37817796610169485 -1.742631772426145 L-0.3114406779661016 -1.7685812612922651 L-0.4062499999999999 -1.9018316412859557 z"/>
<path fill="#bababa" stroke="#bababa" d="M-0.3345588235294117 1.9511104060913704 L-0.2585227272727272 1.9715802831952975 L-0.2420338983050847 1.9893228942613779 z"/>
<path fill="#bababa" stroke="#bababa" d="M0.37142857142857133 1.937958262831359 L0.3444505194095133 1.9559881269895893 L0.27683615819209034 1.9791860059682025 z"/>
<path fill="#bababa" stroke="#bababa" d="M-0.73125 1.676875965570514 L-0.662770309760374 1.698401288980313 L-0.7632575757575758 1.6240246555474978 z"/>
<path fill="#bababa" stroke="#bababa" d="M0.5234297108673976 -1.6570420717542798 L0.5668604651162789 -1.815591159052453 L0.4683318465655663 -1.6947475423669882 z"/>
<path fill="#bababa" stroke="#bababa" d="M-0.37817796610169485 -1.742631772426145 L-0.40624999999999994 -1.9018316412859557 L-0.4739583333333332 -1.8706892449238577 z"/>
<path fill="#bababa" stroke="#bababa" d="M0.6711956521739129 1.7503053616751267 L0.613676212741087 1.7713599715351063 L0.5720338983050846 1.8153201374384242 z"/>
<path fill="#bababa" stroke="#bababa" d="M0.711864406779661 -1.3152284263959388 L0.8125 -1.4035532994923854 L0.8076636904761904 -1.4610469543147204 z"/>
<path fill="#bababa" stroke="#bababa" d="M0.7483552631578947 1.6504899887196836 L0.7771739130434782 1.5960025380710656 L0.6762711864406779 1.6735421147724336 z"/>
<path fill="#bababa" stroke="#bababa" d="M-0.7101449275362317 -1.3417402880857823 L-0.802710843373494 -1.489793781725888 L-0.810678251121076 -1.432300126903553 z"/>
<path fill="#bababa" stroke="#bababa" d="M-0.09491525423728811 -1.8140153144627027 L-0.18055555555555552 -1.963747884940778 L-0.16949152542372875 -1.804138346382173 z"/>
<path fill="#bababa" stroke="#bababa" d="M-0.10156249999999999 -1.9734903994703155 L-0.18055555555555552 -1.963747884940778 L-0.09491525423728811 -1.814015314462703 z"/>
<path fill="#bababa" stroke="#bababa" d="M0.7483552631578947 -1.6271397349125771 L0.7140151515151514 -1.6785229529905092 L0.6485875706214689 -1.523666511405744 z"/>
<path fill="#bababa" stroke="#bababa" d="M-0.40624999999999994 -1.9018316412859557 L-0.3114406779661016 -1.768581261292265 L-0.33455882352941174 -1.9277601522842636 z"/>
<path fill="#bababa" stroke="#bababa" d="M-0.5932203389830507 -1.5936029741392967 L-0.5475880052151237 -1.6370529696865406 L-0.6469907407407406 -1.751189351906504 z"/>
<path fill="#bababa" stroke="#bababa" d="M-0.0949152542372881 -1.8140153144627027 L-0.019239578561612455 -1.818953798502968 L-0.10156249999999999 -1.9734903994703152 z"/>
<path fill="#bababa" stroke="#bababa" d="M0.711864406779661 1.5152284263959388 L0.8076636904761905 1.484397208121827 L0.8124999999999999 1.4269035532994923 z"/>
<path fill="#bababa" stroke="#bababa" d="M-0.3114406779661016 1.968581261292265 L-0.3781779661016948 1.9426317724261453 L-0.4062499999999999 1.9251818950930626 z"/>
<path fill="#bababa" stroke="#bababa" d="M0.5720338983050846 1.8153201374384242 L0.6229166666666665 1.796505620014503 L0.6711956521739129 1.7503053616751267 z"/>
<path fill="#bababa" stroke="#bababa" d="M0.29725609756097554 -1.938839051286539 L0.20606601248884918 -1.7970526953678798 L0.2768361581920903 -1.7791860059682023 z"/>
<path fill="#bababa" stroke="#bababa" d="M0.8076636904761906 -1.4610469543147204 L0.7959183673469388 -1.5169210695645954 L0.7071500729599282 -1.3691990019788347 z"/>
<path fill="#bababa" stroke="#bababa" d="M-0.6864406779661016 -1.447787734845157 L-0.6627703097603741 -1.4984012889803129 L-0.7632575757575757 -1.600674401740391 z"/>
<path fill="#bababa" stroke="#bababa" d="M-0.33455882352941163 -1.9277601522842638 L-0.31144067796610164 -1.768581261292265 L-0.24203389830508468 -1.789322894261378 z"/>
<path fill="#bababa" stroke="#bababa" d="M0.14130434782608692 -1.969216677583101 L0.06018518518518517 -1.9763120577603441 L0.05694915254237287 -1.816846160962771 z"/>
<path fill="#bababa" stroke="#bababa" d="M-0.4062499999999999 1.9251818950930626 L-0.3345588235294117 1.9511104060913704 L-0.3114406779661016 1.968581261292265 z"/>
<path fill="#bababa" stroke="#bababa" d="M-0.2420338983050847 1.9893228942613779 L-0.2585227272727272 1.9715802831952975 L-0.16949152542372878 2.004138346382173 z"/>
<path fill="#bababa" stroke="#bababa" d="M-0.802710843373494 1.5131440355329944 L-0.7101449275362317 1.5417402880857822 L-0.8106782511210762 1.4556503807106596 z"/>
<path fill="#bababa" stroke="#bababa" d="M0.37142857142857133 -1.9146080090242523 L0.29725609756097554 -1.938839051286539 L0.2768361581920903 -1.7791860059682023 z"/>
<path fill="#bababa" stroke="#bababa" d="M0.7118644067796609 -1.3152284263959388 L0.711864406779661 1.5152284263959388 L0.8125 1.4269035532994923 L0.8125 -1.4035532994923856 z"/>
<path fill="#bababa" stroke="#bababa" d="M0.676271186440678 -1.4735421147724332 L0.7771739130434782 -1.572652284263959 L0.7483552631578947 -1.6271397349125771 z"/>
<path fill="#bababa" stroke="#bababa" d="M-0.8106782511210762 1.4556503807106596 L-0.7101449275362318 1.5417402880857822 L-0.7101449275362318 -1.3417402880857823 L-0.810678251121076 -1.432300126903553 z"/>
<path fill="#bababa" stroke="#bababa" d="M0.05694915254237287 -1.816846160962771 L0.1318267419962335 -1.8097951553737492 L0.14130434782608692 -1.969216677583101 z"/>
<path fill="#bababa" stroke="#bababa" d="M-0.3114406779661016 1.968581261292265 L-0.3345588235294117 1.9511104060913704 L-0.2420338983050847 1.9893228942613779 z"/>
<path fill="#bababa" stroke="#bababa" d="M-0.6930147058823528 -1.7035201942176117 L-0.7312499999999998 -1.6535257117634075 L-0.630970724191063 -1.5477170596761058 z"/>
<path fill="#bababa" stroke="#bababa" d="M-0.5958333333333332 1.8178604060913703 L-0.536830357142857 1.858105964467005 L-0.49614791987673335 1.8765966281248945 z"/>
<path fill="#bababa" stroke="#bababa" d="M0.40986132511556234 -1.7273673672107808 L0.46833184656556637 -1.6947475423669882 L0.5058962264150941 -1.8535036415802246 z"/>
<path fill="#bababa" stroke="#bababa" d="M0.06018518518518518 1.9996623115674508 L-0.020833333333333332 2.001840101522842 L-0.1015625 1.9968406532774219 L-0.18055555555555555 1.9870981387478848 L-0.25852272727272724 1.9715802831952973 L-0.33455882352941174 1.9511104060913702 L-0.40625 1.9251818950930624 L-0.4739583333333333 1.894039498730964 L-0.5368303571428571 1.8581059644670048 L-0.5958333333333333 1.8178604060913701 L-0.6469907407407407 1.7745396057136107 L-0.6930147058823529 1.7268704480247183 L-0.73125 1.676875965570514 L-0.7632575757575757 1.6240246555474978 L-0.787109375 1.5682813930265453 L-0.802710843373494 1.5131440355329946 L-0.8106782511210762 1.4556503807106596 L-0.8106782511210762 -1.4323001269035531 L-0.802710843373494 -1.489793781725888 L-0.787109375 -1.5449311392194387 L-0.7632575757575757 -1.6006744017403913 L-0.73125 -1.6535257117634075 L-0.6930147058823529 -1.703520194217612 L-0.6469907407407407 -1.751189351906504 L-0.5958333333333333 -1.7945101522842635 L-0.5368303571428571 -1.8347557106598984 L-0.4739583333333333 -1.8706892449238577 L-0.40625 -1.9018316412859557 L-0.33455882352941174 -1.9277601522842636 L-0.25852272727272724 -1.948230029388191 L-0.18055555555555555 -1.9637478849407781 L-0.1015625 -1.9734903994703155 L-0.020833333333333332 -1.9784898477157358 L0.06018518518518518 -1.9763120577603441 L0.14130434782608695 -1.9692166775831013 L0.21959459459459457 -1.9571959014852411 L0.2972560975609756 -1.938839051286539 L0.3714285714285714 -1.914608009024252 L0.44010416666666663 -1.8864999999999994 L0.5058962264150942 -1.8535036415802246 L0.566860465116279 -1.8155911590524532 L0.6229166666666666 -1.7731553662073962 L0.671195652173913 -1.72695510786802 L0.7140151515151515 -1.6785229529905095 L0.7483552631578947 -1.6271397349125771 L0.7771739130434782 -1.572652284263959 L0.7959183673469388 -1.5169210695645952 L0.8076636904761905 -1.4610469543147204 L0.8125 -1.4035532994923856 L0.8125 1.4269035532994923 L0.8076636904761905 1.484397208121827 L0.7959183673469388 1.5402713233717018 L0.7771739130434782 1.5960025380710656 L0.7483552631578947 1.6504899887196838 L0.7140151515151515 1.701873206797616 L0.671195652173913 1.7503053616751267 L0.6229166666666666 1.7965056200145026 L0.566860465116279 1.8389414128595596 L0.5058962264150942 1.8768538953873313 L0.44010416666666663 1.909850253807106 L0.3714285714285714 1.937958262831359 L0.2972560975609756 1.9621893050936456 L0.21959459459459457 1.9805461552923478 L0.14130434782608695 1.9925669313902077 z"/>
<path fill="#bababa" stroke="#bababa" d="M0.2768361581920903 1.9791860059682023 L0.2060660124888492 1.9970526953678798 L0.2972560975609756 1.9621893050936459 z"/>
<path fill="#bababa" stroke="#bababa" d="M-0.7312500000000001 -1.6535257117634072 L-0.6627703097603741 -1.4984012889803129 L-0.6309707241910631 -1.5477170596761058 z"/>
<path fill="#bababa" stroke="#bababa" d="M-0.43968095712861405 -1.711012647337176 L-0.3781779661016948 -1.742631772426145 L-0.4739583333333332 -1.8706892449238575 z"/>
<path fill="#bababa" stroke="#bababa" d="M-0.10156249999999999 1.996840653277422 L-0.09491525423728811 2.0140153144627027 L-0.18055555555555552 1.9870981387478848 z"/>
<path fill="#bababa" stroke="#bababa" d="M-0.09491525423728811 2.0140153144627027 L-0.16949152542372878 2.004138346382173 L-0.18055555555555552 1.9870981387478848 z"/>
<path fill="#bababa" stroke="#bababa" d="M0.40986132511556234 1.927367367210781 L0.3444505194095133 1.9559881269895893 L0.4401041666666666 1.9098502538071063 z"/>
<path fill="#bababa" stroke="#bababa" d="M-0.019239578561612455 2.018953798502968 L-0.0949152542372881 2.0140153144627027 L-0.10156249999999999 1.996840653277422 z"/>
<path fill="#bababa" stroke="#bababa" d="M-0.10156249999999997 1.996840653277422 L-0.02083333333333333 2.0018401015228426 L-0.019239578561612455 2.018953798502968 z"/>
<path fill="#bababa" stroke="#bababa" d="M-0.019239578561612458 2.018953798502968 L0.05694915254237288 2.0168461609627713 L0.1318267419962335 2.009795155373749 L0.20606601248884923 1.9970526953678795 L0.27683615819209034 1.9791860059682023 L0.3444505194095134 1.9559881269895893 L0.4098613251155624 1.927367367210781 L0.4683318465655664 1.8947475423669884 L0.5234297108673978 1.85704207175428 L0.5720338983050847 1.815320137438424 L0.6136762127410871 1.7713599715351063 L0.6485875706214689 1.723666511405744 L0.676271186440678 1.6735421147724334 L0.6953094205754828 1.6212758731553132 L0.7071500729599282 1.5691990019788349 L0.711864406779661 1.515228426395939 L0.711864406779661 -1.3152284263959388 L0.7071500729599282 -1.3691990019788345 L0.6953094205754828 -1.4212758731553132 L0.676271186440678 -1.4735421147724335 L0.6485875706214689 -1.523666511405744 L0.6136762127410871 -1.5713599715351059 L0.5720338983050847 -1.615320137438424 L0.5234297108673978 -1.65704207175428 L0.4683318465655664 -1.694747542366988 L0.4098613251155624 -1.727367367210781 L0.3444505194095134 -1.7559881269895894 L0.27683615819209034 -1.7791860059682023 L0.20606601248884923 -1.7970526953678796 L0.1318267419962335 -1.8097951553737492 L0.05694915254237288 -1.8168461609627713 L-0.019239578561612458 -1.818953798502968 L-0.09491525423728812 -1.8140153144627027 L-0.1694915254237288 -1.804138346382173 L-0.24203389830508473 -1.7893228942613777 L-0.31144067796610164 -1.7685812612922651 L-0.3781779661016949 -1.7426317724261453 L-0.4396809571286141 -1.711012647337176 L-0.4961479198767334 -1.6765966281248943 L-0.5475880052151239 -1.6370529696865408 L-0.5932203389830508 -1.593602974139297 L-0.6309707241910631 -1.547717059676106 L-0.662770309760374 -1.498401288980313 L-0.6864406779661016 -1.447787734845157 L-0.7021128395635012 -1.3958244859330633 L-0.7101449275362318 -1.3417402880857823 L-0.7101449275362318 1.5417402880857822 L-0.7021128395635012 1.5958244859330637 L-0.6864406779661016 1.647787734845157 L-0.662770309760374 1.698401288980313 L-0.6309707241910631 1.747717059676106 L-0.5932203389830508 1.793602974139297 L-0.5475880052151239 1.8370529696865407 L-0.4961479198767334 1.8765966281248943 L-0.4396809571286141 1.911012647337176 L-0.3781779661016949 1.9426317724261453 L-0.31144067796610164 1.968581261292265 L-0.24203389830508473 1.9893228942613776 L-0.1694915254237288 2.004138346382173 L-0.09491525423728812 2.0140153144627027 z"/>
</svg>