<?xml version="1.0" encoding="UTF-8"?>
<!-- Generated by jsxcad -->
<!DOCTYPE svg PUBLIC "-//W3C//DTD SVG 1.1 Tiny//EN" "http://www.w3.org/Graphics/SVG/1.1/DTD/svg11-tiny.dtd">
<svg baseProfile="tiny" height="4.439068011700941mm" width="1.623178251121077mm" viewBox="-0.8106782511210766 -2.23474327218718 1.623178251121077 4.439068011700941" version="1.1" stroke="black" stroke-width=".1" fill="none" xmlns="http://www.w3.org/2000/svg">
<path fill="#bababa" stroke="#bababa" d="M-0.2534872534872535 -0.4777580935660397 L-0.2534872534872535 -0.6190778905203543 L-0.2654889912954429 -0.5868191098654455 L-0.2654889912954429 -0.4454993129111308 z"/>
<path fill="#bababa" stroke="#bababa" d="M-0.0014969351353790708 -0.6031370253027194 L-0.04692891649413388 -0.6001555282781484 L-0.09251700680272108 -0.5916629280219982 L-0.1349206349206349 -0.5777761267240293 L-0.17346938775510204 -0.5586817749393223 L-0.20687830687830686 -0.5350411489201611 L-0.23386243386243386 -0.5077635035134366 L-0.2534872534872535 -0.4777580935660397 L-0.2654889912954429 -0.4454993129111308 L-0.2698412698412698 -0.41229174458990103 L-0.2698412698412698 -0.016027785199038223 L-0.2654889912954429 0.01717978312219154 L-0.2534872534872535 0.04943856377710043 L-0.23386243386243386 0.07944397372449734 L-0.20687830687830686 0.1067216191312218 L-0.17346938775510204 0.13036224515038297 L-0.1349206349206349 0.14945659693509006 L-0.09251700680272108 0.16334339823305888 L-0.04692891649413388 0.17183599848920914 L0 0.17491573264803287 L0.04692891649413388 0.17183599848920914 L0.09251700680272108 0.16334339823305888 L0.1349206349206349 0.14945659693509006 L0.17346938775510204 0.13036224515038297 L0.20687830687830686 0.1067216191312218 L0.23386243386243386 0.07944397372449734 L0.2534872534872535 0.04943856377710043 L0.2654889912954429 0.01717978312219154 L0.2698412698412698 -0.016027785199038223 L0.2698412698412698 -0.41229174458990103 L0.2654889912954429 -0.4454993129111308 L0.2534872534872535 -0.4777580935660397 L0.23386243386243386 -0.5077635035134366 L0.20687830687830686 -0.5350411489201611 L0.17346938775510204 -0.5586817749393223 L0.1349206349206349 -0.5777761267240293 L0.09251700680272108 -0.5916629280219982 L0.04692891649413388 -0.6001555282781484 L0 -0.6032352624369722 z"/>
<path fill="#bababa" stroke="#bababa" d="M-0.046928916494133874 0.171835998489209 L-0.09251700680272107 0.16334339823305877 L-0.09251700680272107 0.02202360127874418 L-0.046928916494133874 0.03051620153489442 z"/>
<path fill="#bababa" stroke="#bababa" d="M0.046928916494133874 0.171835998489209 L0 0.17491573264803276 L0 0.03359593569371817 L0.046928916494133874 0.030516201534894406 z"/>
<path fill="#bababa" stroke="#bababa" d="M-0.13492063492063489 0.008136799980775296 L-0.09251700680272107 0.02202360127874413 L-0.09251700680272107 0.16334339823305885 L-0.13492063492063489 0.14945659693509003 z"/>
<path fill="#bababa" stroke="#bababa" d="M0.16535386084258263 0.13438210868400544 L0.13492063492063489 0.14945659693508997 L0.13492063492063489 0.008136799980775291 L0.173469387755102 -0.010957551803931787 L0.173469387755102 0.1303622451503829 z"/>
<path fill="#bababa" stroke="#bababa" d="M0.2664052604629854 -0.4385082458961351 L0.2698412698412698 -0.41229174458990103 L0.2698412698412698 -0.5536115415442158 L0.2654889912954429 -0.5868191098654455 L0.2654889912954429 -0.4454993129111308 z"/>
<path fill="#bababa" stroke="#bababa" d="M-0.26984126984126977 -0.01602778519903822 L-0.26984126984126977 -0.15734758215335287 L-0.26548899129544284 -0.12414001383212314 L-0.26548899129544284 0.01717978312219154 z"/>
<path fill="#bababa" stroke="#bababa" d="M-0.2698412698412698 -0.41229174458990103 L-0.2654889912954429 -0.4454993129111308 L-0.2654889912954429 -0.5868191098654455 L-0.2698412698412698 -0.5536115415442158 z"/>
<path fill="#bababa" stroke="#bababa" d="M0.046928916494133874 0.03051620153489438 L0.09251700680272107 0.022023601278744143 L0.09251700680272107 0.16334339823305877 L0.046928916494133874 0.17183599848920902 z"/>
<path fill="#bababa" stroke="#bababa" d="M0.17346938775510196 0.13036224515038294 L0.17346938775510198 -0.01095755180393171 L0.2068783068783068 -0.03459817782309283 L0.2068783068783068 0.10672161913122181 z"/>
<path fill="#bababa" stroke="#bababa" d="M0.20773904458114978 0.10585151879926888 L0.2068783068783068 0.10672161913122179 L0.2068783068783068 -0.03459817782309287 L0.2338624338624338 -0.06187582322981731 L0.2338624338624338 0.07944397372449735 z"/>
<path fill="#bababa" stroke="#bababa" d="M0.2338624338624338 -0.06187582322981732 L0.25348725348725343 -0.09188123317721421 L0.25348725348725343 0.04943856377710043 L0.23386243386243383 0.07944397372449735 z"/>
<path fill="#bababa" stroke="#bababa" d="M0.25348725348725343 0.04943856377710043 L0.25348725348725343 -0.09188123317721424 L0.26548899129544284 -0.12414001383212314 L0.26548899129544284 0.01717978312219154 z"/>
<path fill="#bababa" stroke="#bababa" d="M0.2698412698412698 -0.39868218937867717 L0.2698412698412698 -0.016027785199038223 L0.2698412698412698 -0.1573475821533529 L0.2698412698412698 -0.5536115415442158 L0.2698412698412698 -0.4122917445899011 z"/>
<path fill="#bababa" stroke="#bababa" d="M0.25348725348725354 -0.6190778905203544 L0.23386243386243394 -0.6490833004677513 L0.2338624338624339 -0.5077635035134367 L0.2534872534872535 -0.4777580935660397 z"/>
<path fill="#bababa" stroke="#bababa" d="M0.21029001628011101 -0.5315923288287073 L0.2338624338624339 -0.5077635035134366 L0.2338624338624339 -0.6490833004677513 L0.2068783068783069 -0.6763609458744758 L0.206878306878307 -0.5350411489201611 z"/>
<path fill="#bababa" stroke="#bababa" d="M0.0454319813587548 -0.6002537654124013 L0.046928916494133874 -0.6001555282781484 L0.046928916494133874 -0.7414753252324632 L0 -0.744555059391287 L0 -0.6032352624369722 z"/>
<path fill="#bababa" stroke="#bababa" d="M0 -0.744555059391287 L-0.046928916494133874 -0.7414753252324632 L-0.046928916494133874 -0.6001555282781484 L0 -0.6032352624369722 z"/>
<path fill="#bababa" stroke="#bababa" d="M-0.13492063492063489 -0.7190959236783441 L-0.13492063492063489 -0.5777761267240296 L-0.09251700680272107 -0.5916629280219984 L-0.09251700680272107 -0.7329827249763129 z"/>
<path fill="#bababa" stroke="#bababa" d="M-0.173469387755102 -0.7000015718936371 L-0.173469387755102 -0.5586817749393225 L-0.13492063492063489 -0.5777761267240296 L-0.13492063492063489 -0.7190959236783442 z"/>
<path fill="#bababa" stroke="#bababa" d="M-0.20542146419345242 -0.5360720315103576 L-0.1734693877551022 -0.5586817749393221 L-0.1734693877551021 -0.700001571893637 L-0.20687830687830697 -0.6763609458744756 L-0.20687830687830694 -0.5350411489201611 z"/>
<path fill="#bababa" stroke="#bababa" d="M-0.20773904458114992 -0.5341710485882081 L-0.206878306878307 -0.5350411489201611 L-0.2068783068783069 -0.6763609458744758 L-0.2338624338624339 -0.6490833004677513 L-0.2338624338624339 -0.5077635035134366 z"/>
<path fill="#bababa" stroke="#bababa" d="M-0.23386243386243394 -0.6490833004677513 L-0.25348725348725354 -0.6190778905203544 L-0.2534872534872535 -0.4777580935660397 L-0.2338624338624339 -0.5077635035134367 z"/>
<path fill="#bababa" stroke="#bababa" d="M-0.2698412698412698 -0.016027785199038223 L-0.2698412698412698 -0.4122917445899011 L-0.2698412698412698 -0.5536115415442158 L-0.2698412698412698 -0.1573475821533529 z"/>
<path fill="#bababa" stroke="#bababa" d="M-0.2560139351310828 0.04264724153396172 L-0.26548899129544284 0.01717978312219154 L-0.26548899129544284 -0.12414001383212314 L-0.25348725348725343 -0.09188123317721424 L-0.25348725348725343 0.04943856377710043 z"/>
<path fill="#bababa" stroke="#bababa" d="M-0.25348725348725343 0.04943856377710043 L-0.25348725348725343 -0.09188123317721421 L-0.2338624338624338 -0.06187582322981732 L-0.23386243386243383 0.07944397372449735 z"/>
<path fill="#bababa" stroke="#bababa" d="M-0.2068783068783068 -0.03459817782309287 L-0.2068783068783068 0.10672161913122179 L-0.2338624338624338 0.07944397372449735 L-0.2338624338624338 -0.06187582322981731 z"/>
<path fill="#bababa" stroke="#bababa" d="M-0.1760286487972196 0.1285512756616967 L-0.2068783068783068 0.10672161913122181 L-0.2068783068783068 -0.03459817782309283 L-0.17346938775510198 -0.01095755180393171 L-0.17346938775510196 0.13036224515038294 z"/>
<path fill="#bababa" stroke="#bababa" d="M-0.173469387755102 -0.010957551803931787 L-0.13492063492063489 0.008136799980775291 L-0.13492063492063489 0.14945659693508997 L-0.173469387755102 0.1303622451503829 z"/>
<path fill="#bababa" stroke="#bababa" d="M-0.04640514785220462 0.17187037107435216 L-0.046928916494133874 0.171835998489209 L-0.046928916494133874 0.030516201534894406 L0 0.03359593569371817 L0 0.17491573264803276 z"/>
<path fill="#bababa" stroke="#bababa" d="M0.09251700680272108 0.02202360127874422 L0.04692891649413388 0.030516201534894455 L0 0.033595935693718215 L-0.04692891649413388 0.030516201534894455 L-0.09251700680272108 0.02202360127874422 L-0.1349206349206349 0.008136799980775386 L-0.17346938775510204 -0.010957551803931697 L-0.20687830687830686 -0.034598177823092865 L-0.23386243386243386 -0.06187582322981732 L-0.2534872534872535 -0.09188123317721422 L-0.2654889912954429 -0.12414001383212314 L-0.2698412698412698 -0.1573475821533529 L-0.2698412698412698 -0.5536115415442158 L-0.2654889912954429 -0.5868191098654455 L-0.2534872534872535 -0.6190778905203543 L-0.23386243386243386 -0.6490833004677512 L-0.20687830687830686 -0.6763609458744757 L-0.17346938775510204 -0.7000015718936369 L-0.1349206349206349 -0.7190959236783441 L-0.09251700680272108 -0.7329827249763128 L-0.04692891649413388 -0.7414753252324631 L0 -0.7445550593912869 L0.04692891649413388 -0.7414753252324631 L0.09251700680272108 -0.7329827249763128 L0.1349206349206349 -0.7190959236783441 L0.17346938775510204 -0.7000015718936369 L0.20687830687830686 -0.6763609458744757 L0.23386243386243386 -0.6490833004677512 L0.2534872534872535 -0.6190778905203543 L0.2654889912954429 -0.5868191098654455 L0.2698412698412698 -0.5536115415442158 L0.2698412698412698 -0.1573475821533529 L0.2654889912954429 -0.12414001383212314 L0.2534872534872535 -0.09188123317721422 L0.23386243386243386 -0.06187582322981732 L0.20687830687830686 -0.034598177823092865 L0.17346938775510204 -0.010957551803931697 L0.1349206349206349 0.008136799980775386 z"/>
<path fill="#bababa" stroke="#bababa" d="M0.2654889912954429 -0.5868191098654455 L0.2534872534872535 -0.6190778905203544 L0.2534872534872535 -0.47775809356603977 L0.2654889912954429 -0.4454993129111308 z"/>
<path fill="#bababa" stroke="#bababa" d="M0.09251700680272107 -0.732982724976313 L0.04692891649413387 -0.7414753252324633 L0.04692891649413387 -0.6001555282781486 L0.09251700680272107 -0.5916629280219984 z"/>
<path fill="#bababa" stroke="#bababa" d="M0.09633352459432812 -0.5904130532689504 L0.13492063492063489 -0.5777761267240294 L0.13492063492063489 -0.7190959236783442 L0.09251700680272107 -0.732982724976313 L0.09251700680272107 -0.5916629280219983 z"/>
<path fill="#bababa" stroke="#bababa" d="M0.14303616183315426 -0.5737562631904071 L0.173469387755102 -0.5586817749393226 L0.173469387755102 -0.7000015718936371 L0.13492063492063489 -0.7190959236783442 L0.13492063492063489 -0.5777761267240297 z"/>
<path fill="#bababa" stroke="#bababa" d="M-0.046928916494133874 -0.7414753252324634 L-0.09251700680272107 -0.7329827249763131 L-0.09251700680272107 -0.5916629280219985 L-0.046928916494133874 -0.6001555282781488 z"/>
<path fill="#bababa" stroke="#bababa" d="M0.09251700680272107 0.022023601278744198 L0.13492063492063489 0.008136799980775367 L0.13492063492063489 0.14945659693508997 L0.09251700680272107 0.1633433982330588 z"/>
<path fill="#bababa" stroke="#bababa" d="M0.17346938775510207 -0.700001571893637 L0.17346938775510204 -0.5586817749393223 L0.20687830687830697 -0.5350411489201612 L0.206878306878307 -0.6763609458744758 z"/>
<path fill="#bababa" stroke="#bababa" d="M0.26548899129544284 0.01717978312219154 L0.26548899129544284 -0.12414001383212313 L0.26984126984126977 -0.1573475821533529 L0.26984126984126977 -0.016027785199038223 z"/>
<path fill="#bababa" stroke="#bababa" d="M0.7483552631578948 1.866279462403894 L0.648587570621469 1.9394559850899544 L0.7140151515151516 1.9176626804818264 z"/>
<path fill="#bababa" stroke="#bababa" d="M-0.02083333333333333 2.2176295752070527 L0.060185185185185175 2.2154517852516613 L-0.019239578561612455 2.2347432721871785 z"/>
<path fill="#bababa" stroke="#bababa" d="M-0.8027108433734939 -1.2740043080416772 L-0.7021128395635012 -1.180035012248853 L-0.7871093750000003 -1.3291416655352284 z"/>
<path fill="#bababa" stroke="#bababa" d="M0.7071500729599283 1.7849884756630452 L0.695309420575483 1.8370653468395237 L0.7959183673469388 1.7560607970559123 z"/>
<path fill="#bababa" stroke="#bababa" d="M-0.787109375 -1.3291416655352284 L-0.7021128395635015 -1.180035012248853 L-0.6864406779661018 -1.2319982611609466 z"/>
<path fill="#bababa" stroke="#bababa" d="M0.5234297108673976 2.0728315454384902 L0.6229166666666665 2.0122950936987136 L0.5720338983050846 2.0311096111226346 z"/>
<path fill="#bababa" stroke="#bababa" d="M0.5668604651162789 2.05473088654377 L0.6229166666666665 2.0122950936987136 L0.5234297108673976 2.0728315454384902 z"/>
<path fill="#bababa" stroke="#bababa" d="M-0.6309707241910633 1.9635065333603166 L-0.662770309760374 1.9141907626645236 L-0.7312500000000001 1.8926654392547244 z"/>
<path fill="#bababa" stroke="#bababa" d="M-0.7632575757575758 1.8398141292317083 L-0.662770309760374 1.9141907626645236 L-0.6864406779661018 1.8635772085293674 z"/>
<path fill="#bababa" stroke="#bababa" d="M-0.7021128395635012 1.811613959617274 L-0.787109375 1.784070866710756 L-0.6864406779661016 1.8635772085293676 z"/>
<path fill="#bababa" stroke="#bababa" d="M-0.4961479198767333 2.092386101809105 L-0.5475880052151237 2.0528424433707513 L-0.5958333333333332 2.033649879775581 z"/>
<path fill="#bababa" stroke="#bababa" d="M-0.6469907407407406 1.9903290793978214 L-0.5932203389830507 2.0093924478235072 L-0.6930147058823528 1.942659921708929 z"/>
<path fill="#bababa" stroke="#bababa" d="M0.7959183673469387 -1.3011315958803846 L0.7771739130434785 -1.3568628105797484 L0.6953094205754832 -1.2054863994711027 z"/>
<path fill="#bababa" stroke="#bababa" d="M-0.6864406779661016 1.8635772085293676 L-0.7871093750000001 1.7840708667107559 L-0.7632575757575758 1.8398141292317085 z"/>
<path fill="#bababa" stroke="#bababa" d="M0.613676212741087 -1.3555704978508956 L0.6711956521739129 -1.5111656341838096 L0.5720338983050846 -1.3995306637542138 z"/>
<path fill="#bababa" stroke="#bababa" d="M0.711864406779661 1.7310179000801493 L0.7071500729599283 1.7849884756630452 L0.8076636904761905 1.7001866818060376 z"/>
<path fill="#bababa" stroke="#bababa" d="M-0.6930147058823528 1.942659921708929 L-0.5932203389830507 2.0093924478235072 L-0.630970724191063 1.9635065333603168 z"/>
<path fill="#bababa" stroke="#bababa" d="M0.6229166666666665 -1.5573658925231857 L0.5668604651162789 -1.5998016853682426 L0.5234297108673976 -1.4412525980700692 z"/>
<path fill="#bababa" stroke="#bababa" d="M0.5058962264150941 -1.637714167896014 L0.4401041666666665 -1.6707105263157889 L0.40986132511556234 -1.5115778935265702 z"/>
<path fill="#bababa" stroke="#bababa" d="M-0.1805555555555555 -1.7479584112565674 L-0.2585227272727272 -1.7324405557039804 L-0.16949152542372878 -1.5883488726979624 z"/>
<path fill="#bababa" stroke="#bababa" d="M0.4401041666666665 2.1256397274913166 L0.3444505194095133 2.1717776006737997 L0.37142857142857133 2.1537477365155695 z"/>
<path fill="#bababa" stroke="#bababa" d="M0.3444505194095133 -1.5401986533053789 L0.4401041666666666 -1.6707105263157889 L0.37142857142857133 -1.6988185353400416 z"/>
<path fill="#bababa" stroke="#bababa" d="M0.5720338983050846 -1.3995306637542133 L0.6711956521739129 -1.5111656341838093 L0.6229166666666665 -1.5573658925231857 z"/>
<path fill="#bababa" stroke="#bababa" d="M-0.6930147058823528 1.9426599217089289 L-0.630970724191063 1.9635065333603168 L-0.7312499999999997 1.8926654392547246 z"/>
<path fill="#bababa" stroke="#bababa" d="M0.46833184656556637 2.110537016051199 L0.5058962264150941 2.092643369071542 L0.5668604651162789 2.05473088654377 z"/>
<path fill="#bababa" stroke="#bababa" d="M0.695309420575483 -1.205486399471103 L0.7771739130434784 -1.3568628105797484 L0.676271186440678 -1.257752641088223 z"/>
<path fill="#bababa" stroke="#bababa" d="M-0.6469907407407406 -1.5353998782222935 L-0.5475880052151237 -1.4212634960023303 L-0.5958333333333332 -1.578720678600053 z"/>
<path fill="#bababa" stroke="#bababa" d="M-0.16949152542372878 -1.5883488726979624 L-0.2585227272727272 -1.7324405557039804 L-0.24203389830508468 -1.5735334205771672 z"/>
<path fill="#bababa" stroke="#bababa" d="M0.7140151515151514 1.9176626804818266 L0.6485875706214688 1.9394559850899546 L0.613676212741087 1.9871494452193168 z"/>
<path fill="#bababa" stroke="#bababa" d="M-0.802710843373494 1.7289335092172051 L-0.7021128395635012 1.8116139596172742 L-0.7101449275362319 1.7575297617699928 z"/>
<path fill="#bababa" stroke="#bababa" d="M-0.7101449275362318 -1.1259508144015717 L-0.7021128395635015 -1.180035012248853 L-0.8027108433734942 -1.2740043080416774 z"/>
<path fill="#bababa" stroke="#bababa" d="M0.5234297108673976 -1.4412525980700692 L0.5720338983050846 -1.3995306637542135 L0.6229166666666665 -1.5573658925231857 z"/>
<path fill="#bababa" stroke="#bababa" d="M0.13182674199623348 2.22558462905796 L0.21959459459459454 2.1963356289765583 L0.2060660124888492 2.2128421690520903 z"/>
<path fill="#bababa" stroke="#bababa" d="M0.5668604651162789 2.05473088654377 L0.5234297108673976 2.0728315454384902 L0.46833184656556637 2.110537016051199 z"/>
<path fill="#bababa" stroke="#bababa" d="M0.13182674199623348 2.22558462905796 L0.05694915254237287 2.232635634646982 L0.14130434782608692 2.208356405074418 z"/>
<path fill="#bababa" stroke="#bababa" d="M0.7140151515151514 -1.4627334793062987 L0.6711956521739129 -1.5111656341838096 L0.613676212741087 -1.3555704978508953 z"/>
<path fill="#bababa" stroke="#bababa" d="M0.46833184656556637 2.110537016051199 L0.40986132511556234 2.1431568408949913 L0.5058962264150941 2.092643369071542 z"/>
<path fill="#bababa" stroke="#bababa" d="M-0.47395833333333326 2.109828972415175 L-0.43968095712861405 2.1268021210213863 L-0.536830357142857 2.0738954381512156 z"/>
<path fill="#bababa" stroke="#bababa" d="M-0.2420338983050847 -1.5735334205771672 L-0.2585227272727272 -1.7324405557039804 L-0.33455882352941174 -1.711970678600053 z"/>
<path fill="#bababa" stroke="#bababa" d="M0.13182674199623348 -1.5940056816895385 L0.2060660124888492 -1.5812632216836688 L0.21959459459459454 -1.7414064278010304 z"/>
<path fill="#bababa" stroke="#bababa" d="M0.7959183673469389 1.7560607970559123 L0.6953094205754828 1.837065346839524 L0.7771739130434782 1.8117920117552762 z"/>
<path fill="#bababa" stroke="#bababa" d="M-0.7632575757575758 -1.3848849280561808 L-0.7871093750000001 -1.3291416655352282 L-0.6864406779661019 -1.2319982611609464 z"/>
<path fill="#bababa" stroke="#bababa" d="M0.060185185185185175 -1.7605225840761336 L-0.02083333333333333 -1.762700374031525 L-0.019239578561612455 -1.6031643248187575 z"/>
<path fill="#bababa" stroke="#bababa" d="M0.6711956521739129 1.9660948353593375 L0.7140151515151514 1.9176626804818266 L0.6136762127410869 1.9871494452193168 z"/>
<path fill="#bababa" stroke="#bababa" d="M-0.49614791987673335 -1.4608071544406838 L-0.536830357142857 -1.6189662369756879 L-0.5958333333333332 -1.5787206786000532 z"/>
<path fill="#bababa" stroke="#bababa" d="M0.14130434782608692 2.208356405074418 L0.21959459459459454 2.1963356289765583 L0.13182674199623348 2.22558462905796 z"/>
<path fill="#bababa" stroke="#bababa" d="M0.8076636904761904 -1.24525748063051 L0.707150072959928 -1.1534095282946242 L0.7118644067796611 -1.0994389527117283 z"/>
<path fill="#bababa" stroke="#bababa" d="M-0.3781779661016948 2.158421246110356 L-0.4739583333333332 2.109828972415175 L-0.40624999999999994 2.1409713687772727 z"/>
<path fill="#bababa" stroke="#bababa" d="M-0.6469907407407406 1.9903290793978214 L-0.5475880052151237 2.0528424433707513 L-0.5932203389830507 2.0093924478235072 z"/>
<path fill="#bababa" stroke="#bababa" d="M0.2768361581920903 -1.5633965322839918 L0.3444505194095133 -1.5401986533053786 L0.3714285714285713 -1.6988185353400418 z"/>
<path fill="#bababa" stroke="#bababa" d="M-0.019239578561612455 -1.6031643248187575 L-0.02083333333333333 -1.7627003740315255 L-0.10156249999999997 -1.7577009257861047 z"/>
<path fill="#bababa" stroke="#bababa" d="M0.7071500729599282 -1.1534095282946242 L0.7959183673469388 -1.3011315958803849 L0.6953094205754831 -1.2054863994711027 z"/>
<path fill="#bababa" stroke="#bababa" d="M0.6762711864406781 1.889331588456644 L0.6485875706214689 1.9394559850899546 L0.7483552631578948 1.866279462403894 z"/>
<path fill="#bababa" stroke="#bababa" d="M0.46833184656556637 -1.4789580686827777 L0.5668604651162789 -1.5998016853682426 L0.5058962264150941 -1.6377141678960143 z"/>
<path fill="#bababa" stroke="#bababa" d="M-0.802710843373494 1.7289335092172051 L-0.787109375 1.7840708667107559 L-0.7021128395635013 1.811613959617274 z"/>
<path fill="#bababa" stroke="#bababa" d="M0.13182674199623348 -1.5940056816895387 L0.21959459459459457 -1.7414064278010304 L0.14130434782608695 -1.7534272038988905 z"/>
<path fill="#bababa" stroke="#bababa" d="M-0.6930147058823528 -1.4877307205334012 L-0.630970724191063 -1.3319275859918953 L-0.5932203389830507 -1.3778135004550862 z"/>
<path fill="#bababa" stroke="#bababa" d="M0.14130434782608692 2.208356405074418 L0.05694915254237287 2.232635634646982 L0.06018518518518517 2.2154517852516613 z"/>
<path fill="#bababa" stroke="#bababa" d="M0.40986132511556234 -1.5115778935265702 L0.4401041666666666 -1.6707105263157889 L0.3444505194095133 -1.5401986533053789 z"/>
<path fill="#bababa" stroke="#bababa" d="M0.2060660124888492 2.2128421690520903 L0.21959459459459454 2.1963356289765583 L0.29725609756097554 2.177978778777856 z"/>
<path fill="#bababa" stroke="#bababa" d="M-0.5932203389830507 -1.377813500455086 L-0.6469907407407406 -1.5353998782222935 L-0.6930147058823528 -1.4877307205334012 z"/>
<path fill="#bababa" stroke="#bababa" d="M0.7771739130434783 1.8117920117552762 L0.695309420575483 1.8370653468395237 L0.676271186440678 1.889331588456644 z"/>
<path fill="#bababa" stroke="#bababa" d="M-0.5958333333333332 -1.578720678600053 L-0.5475880052151237 -1.4212634960023303 L-0.49614791987673335 -1.4608071544406838 z"/>
<path fill="#bababa" stroke="#bababa" d="M0.05694915254237287 -1.6010566872785605 L0.060185185185185175 -1.7605225840761336 L-0.019239578561612455 -1.6031643248187573 z"/>
<path fill="#bababa" stroke="#bababa" d="M0.5058962264150941 2.092643369071542 L0.40986132511556234 2.1431568408949913 L0.4401041666666665 2.1256397274913166 z"/>
<path fill="#bababa" stroke="#bababa" d="M-0.5958333333333332 2.033649879775581 L-0.5475880052151237 2.0528424433707513 L-0.6469907407407406 1.9903290793978214 z"/>
<path fill="#bababa" stroke="#bababa" d="M0.21959459459459454 -1.7414064278010304 L0.20606601248884918 -1.5812632216836693 L0.29725609756097554 -1.7230495776023282 z"/>
<path fill="#bababa" stroke="#bababa" d="M0.060185185185185175 2.2154517852516613 L0.05694915254237287 2.232635634646982 L-0.019239578561612455 2.2347432721871785 z"/>
<path fill="#bababa" stroke="#bababa" d="M0.7140151515151514 -1.4627334793062987 L0.613676212741087 -1.3555704978508956 L0.6485875706214688 -1.3078770377215334 z"/>
<path fill="#bababa" stroke="#bababa" d="M-0.16949152542372878 2.2199278200663835 L-0.2585227272727272 2.187369756879508 L-0.18055555555555552 2.2028876124320953 z"/>
<path fill="#bababa" stroke="#bababa" d="M0.8076636904761906 1.7001866818060374 L0.7071500729599282 1.7849884756630452 L0.7959183673469388 1.7560607970559123 z"/>
<path fill="#bababa" stroke="#bababa" d="M-0.3781779661016948 2.158421246110356 L-0.43968095712861405 2.1268021210213863 L-0.47395833333333326 2.109828972415175 z"/>
<path fill="#bababa" stroke="#bababa" d="M-0.439680957128614 -1.4952231736529653 L-0.536830357142857 -1.6189662369756876 L-0.4961479198767333 -1.4608071544406838 z"/>
<path fill="#bababa" stroke="#bababa" d="M-0.536830357142857 2.0738954381512156 L-0.439680957128614 2.1268021210213863 L-0.4961479198767333 2.092386101809105 z"/>
<path fill="#bababa" stroke="#bababa" d="M-0.47395833333333326 -1.6548997712396472 L-0.536830357142857 -1.6189662369756879 L-0.43968095712861405 -1.4952231736529655 z"/>
<path fill="#bababa" stroke="#bababa" d="M-0.7632575757575759 -1.3848849280561808 L-0.6627703097603739 -1.2826118152961026 L-0.7312500000000002 -1.4377362380791967 z"/>
<path fill="#bababa" stroke="#bababa" d="M0.6485875706214689 -1.3078770377215334 L0.6762711864406782 -1.257752641088223 L0.7483552631578949 -1.4113502612283666 z"/>
<path fill="#bababa" stroke="#bababa" d="M0.29725609756097554 2.1779787787778564 L0.37142857142857133 2.1537477365155695 L0.2768361581920903 2.194975479652413 z"/>
<path fill="#bababa" stroke="#bababa" d="M-0.37817796610169485 -1.5268422987419346 L-0.3114406779661016 -1.5527917876080546 L-0.4062499999999999 -1.6860421676017452 z"/>
<path fill="#bababa" stroke="#bababa" d="M-0.3345588235294117 2.1668998797755807 L-0.2585227272727272 2.187369756879508 L-0.2420338983050847 2.2051123679455884 z"/>
<path fill="#bababa" stroke="#bababa" d="M0.37142857142857133 2.1537477365155695 L0.3444505194095133 2.1717776006737997 L0.2768361581920903 2.194975479652413 z"/>
<path fill="#bababa" stroke="#bababa" d="M-0.7312500000000001 1.8926654392547244 L-0.6627703097603741 1.9141907626645236 L-0.7632575757575757 1.8398141292317085 z"/>
<path fill="#bababa" stroke="#bababa" d="M0.5234297108673976 -1.4412525980700692 L0.5668604651162789 -1.5998016853682424 L0.46833184656556637 -1.4789580686827775 z"/>
<path fill="#bababa" stroke="#bababa" d="M-0.37817796610169485 -1.5268422987419346 L-0.4062499999999999 -1.6860421676017454 L-0.47395833333333326 -1.6548997712396472 z"/>
<path fill="#bababa" stroke="#bababa" d="M0.6711956521739129 1.9660948353593375 L0.6136762127410869 1.9871494452193168 L0.5720338983050846 2.0311096111226346 z"/>
<path fill="#bababa" stroke="#bababa" d="M0.711864406779661 -1.0994389527117283 L0.8125000000000002 -1.187763825808175 L0.8076636904761905 -1.24525748063051 z"/>
<path fill="#bababa" stroke="#bababa" d="M0.7483552631578948 1.866279462403894 L0.7771739130434783 1.8117920117552762 L0.676271186440678 1.889331588456644 z"/>
<path fill="#bababa" stroke="#bababa" d="M-0.7101449275362319 -1.1259508144015717 L-0.8027108433734939 -1.2740043080416772 L-0.8106782511210763 -1.2165106532193426 z"/>
<path fill="#bababa" stroke="#bababa" d="M-0.09491525423728811 -1.5982258407784922 L-0.18055555555555552 -1.7479584112565674 L-0.16949152542372878 -1.5883488726979627 z"/>
<path fill="#bababa" stroke="#bababa" d="M-0.10156249999999999 -1.7577009257861047 L-0.1805555555555555 -1.7479584112565674 L-0.09491525423728811 -1.5982258407784922 z"/>
<path fill="#bababa" stroke="#bababa" d="M0.7483552631578947 -1.4113502612283666 L0.7140151515151514 -1.4627334793062987 L0.6485875706214689 -1.3078770377215334 z"/>
<path fill="#bababa" stroke="#bababa" d="M-0.40624999999999994 -1.6860421676017452 L-0.3114406779661016 -1.5527917876080544 L-0.3345588235294117 -1.7119706786000533 z"/>
<path fill="#bababa" stroke="#bababa" d="M-0.5932203389830507 -1.3778135004550862 L-0.5475880052151237 -1.42126349600233 L-0.6469907407407406 -1.5353998782222935 z"/>
<path fill="#bababa" stroke="#bababa" d="M-0.0949152542372881 -1.5982258407784922 L-0.019239578561612455 -1.6031643248187575 L-0.10156249999999999 -1.7577009257861047 z"/>
<path fill="#bababa" stroke="#bababa" d="M0.7118644067796611 1.7310179000801493 L0.8076636904761905 1.7001866818060376 L0.8125000000000001 1.6426930269837026 z"/>
<path fill="#bababa" stroke="#bababa" d="M-0.3114406779661016 2.1843707349764756 L-0.3781779661016948 2.158421246110356 L-0.4062499999999999 2.140971368777273 z"/>
<path fill="#bababa" stroke="#bababa" d="M0.5720338983050846 2.0311096111226346 L0.6229166666666665 2.0122950936987136 L0.6711956521739129 1.9660948353593373 z"/>
<path fill="#bababa" stroke="#bababa" d="M0.29725609756097554 -1.7230495776023285 L0.2060660124888492 -1.581263221683669 L0.2768361581920903 -1.5633965322839916 z"/>
<path fill="#bababa" stroke="#bababa" d="M0.8076636904761904 -1.24525748063051 L0.7959183673469389 -1.3011315958803849 L0.7071500729599284 -1.1534095282946242 z"/>
<path fill="#bababa" stroke="#bababa" d="M-0.6864406779661016 -1.2319982611609464 L-0.662770309760374 -1.2826118152961026 L-0.7632575757575759 -1.3848849280561808 z"/>
<path fill="#bababa" stroke="#bababa" d="M-0.33455882352941174 -1.711970678600053 L-0.3114406779661016 -1.5527917876080546 L-0.2420338983050847 -1.5735334205771672 z"/>
<path fill="#bababa" stroke="#bababa" d="M0.14130434782608692 -1.7534272038988905 L0.06018518518518517 -1.7605225840761336 L0.05694915254237287 -1.6010566872785605 z"/>
<path fill="#bababa" stroke="#bababa" d="M-0.4062499999999999 2.1409713687772727 L-0.3345588235294117 2.1668998797755807 L-0.3114406779661016 2.1843707349764756 z"/>
<path fill="#bababa" stroke="#bababa" d="M-0.2420338983050847 2.2051123679455884 L-0.2585227272727272 2.187369756879508 L-0.16949152542372878 2.2199278200663835 z"/>
<path fill="#bababa" stroke="#bababa" d="M-0.802710843373494 1.7289335092172051 L-0.7101449275362318 1.7575297617699928 L-0.8106782511210763 1.67143985439487 z"/>
<path fill="#bababa" stroke="#bababa" d="M0.37142857142857133 -1.6988185353400416 L0.29725609756097554 -1.7230495776023285 L0.2768361581920903 -1.5633965322839916 z"/>
<path fill="#bababa" stroke="#bababa" d="M0.7118644067796611 -1.0994389527117283 L0.711864406779661 1.7310179000801493 L0.8125 1.6426930269837028 L0.8125 -1.187763825808175 z"/>
<path fill="#bababa" stroke="#bababa" d="M0.6762711864406781 -1.257752641088223 L0.7771739130434783 -1.3568628105797484 L0.7483552631578948 -1.4113502612283666 z"/>
<path fill="#bababa" stroke="#bababa" d="M-0.8106782511210762 1.6714398543948703 L-0.7101449275362319 1.7575297617699925 L-0.7101449275362319 -1.1259508144015717 L-0.8106782511210763 -1.2165106532193426 z"/>
<path fill="#bababa" stroke="#bababa" d="M0.05694915254237288 -1.6010566872785603 L0.13182674199623348 -1.5940056816895385 L0.14130434782608692 -1.7534272038988905 z"/>
<path fill="#bababa" stroke="#bababa" d="M-0.3114406779661016 2.1843707349764756 L-0.3345588235294117 2.1668998797755807 L-0.24203389830508468 2.2051123679455884 z"/>
<path fill="#bababa" stroke="#bababa" d="M-0.6930147058823528 -1.4877307205334012 L-0.7312499999999998 -1.4377362380791967 L-0.630970724191063 -1.3319275859918955 z"/>
<path fill="#bababa" stroke="#bababa" d="M-0.5958333333333332 2.033649879775581 L-0.536830357142857 2.0738954381512156 L-0.4961479198767333 2.092386101809105 z"/>
<path fill="#bababa" stroke="#bababa" d="M0.4098613251155623 -1.5115778935265702 L0.4683318465655663 -1.4789580686827775 L0.5058962264150941 -1.6377141678960143 z"/>
<path fill="#bababa" stroke="#bababa" d="M0.06018518518518518 2.2154517852516613 L-0.020833333333333332 2.2176295752070527 L-0.1015625 2.2126301269616326 L-0.18055555555555555 2.202887612432095 L-0.25852272727272724 2.187369756879508 L-0.33455882352941174 2.1668998797755807 L-0.40625 2.1409713687772727 L-0.4739583333333333 2.109828972415175 L-0.5368303571428571 2.073895438151215 L-0.5958333333333333 2.0336498797755804 L-0.6469907407407407 1.9903290793978212 L-0.6930147058823529 1.9426599217089286 L-0.73125 1.8926654392547244 L-0.7632575757575757 1.8398141292317085 L-0.787109375 1.7840708667107559 L-0.802710843373494 1.728933509217205 L-0.8106782511210762 1.67143985439487 L-0.8106782511210762 -1.2165106532193426 L-0.802710843373494 -1.2740043080416774 L-0.787109375 -1.3291416655352284 L-0.7632575757575757 -1.3848849280561806 L-0.73125 -1.437736238079197 L-0.6930147058823529 -1.4877307205334012 L-0.6469907407407407 -1.5353998782222937 L-0.5958333333333333 -1.5787206786000532 L-0.5368303571428571 -1.6189662369756876 L-0.4739583333333333 -1.654899771239647 L-0.40625 -1.6860421676017452 L-0.33455882352941174 -1.7119706786000533 L-0.25852272727272724 -1.7324405557039801 L-0.18055555555555555 -1.7479584112565676 L-0.1015625 -1.7577009257861047 L-0.020833333333333332 -1.7627003740315252 L0.06018518518518518 -1.7605225840761336 L0.14130434782608695 -1.7534272038988905 L0.21959459459459457 -1.7414064278010306 L0.2972560975609756 -1.7230495776023285 L0.3714285714285714 -1.6988185353400418 L0.44010416666666663 -1.6707105263157889 L0.5058962264150942 -1.6377141678960143 L0.566860465116279 -1.5998016853682424 L0.6229166666666666 -1.557365892523186 L0.671195652173913 -1.5111656341838096 L0.7140151515151515 -1.4627334793062987 L0.7483552631578947 -1.4113502612283666 L0.7771739130434782 -1.3568628105797484 L0.7959183673469388 -1.3011315958803846 L0.8076636904761905 -1.24525748063051 L0.8125 -1.187763825808175 L0.8125 1.6426930269837026 L0.8076636904761905 1.7001866818060374 L0.7959183673469388 1.7560607970559123 L0.7771739130434782 1.811792011755276 L0.7483552631578947 1.8662794624038943 L0.7140151515151515 1.9176626804818266 L0.671195652173913 1.966094835359337 L0.6229166666666666 2.012295093698713 L0.566860465116279 2.05473088654377 L0.5058962264150942 2.0926433690715416 L0.44010416666666663 2.1256397274913166 L0.3714285714285714 2.153747736515569 L0.2972560975609756 2.177978778777856 L0.21959459459459457 2.196335628976558 L0.14130434782608695 2.208356405074418 z"/>
<path fill="#bababa" stroke="#bababa" d="M0.2768361581920903 2.194975479652413 L0.2060660124888492 2.2128421690520903 L0.29725609756097554 2.177978778777856 z"/>
<path fill="#bababa" stroke="#bababa" d="M-0.73125 -1.4377362380791967 L-0.6627703097603742 -1.2826118152961024 L-0.6309707241910631 -1.3319275859918955 z"/>
<path fill="#bababa" stroke="#bababa" d="M-0.43968095712861405 -1.4952231736529653 L-0.37817796610169485 -1.5268422987419346 L-0.47395833333333326 -1.6548997712396472 z"/>
<path fill="#bababa" stroke="#bababa" d="M-0.10156249999999999 2.2126301269616326 L-0.09491525423728811 2.229804788146913 L-0.18055555555555552 2.2028876124320953 z"/>
<path fill="#bababa" stroke="#bababa" d="M-0.09491525423728811 2.229804788146913 L-0.16949152542372878 2.2199278200663835 L-0.18055555555555552 2.2028876124320953 z"/>
<path fill="#bababa" stroke="#bababa" d="M0.40986132511556234 2.1431568408949913 L0.3444505194095133 2.1717776006737997 L0.4401041666666666 2.1256397274913166 z"/>
<path fill="#bababa" stroke="#bababa" d="M-0.019239578561612455 2.2347432721871785 L-0.0949152542372881 2.229804788146913 L-0.10156249999999999 2.2126301269616326 z"/>
<path fill="#bababa" stroke="#bababa" d="M-0.10156249999999997 2.2126301269616326 L-0.02083333333333333 2.2176295752070527 L-0.019239578561612455 2.2347432721871785 z"/>
<path fill="#bababa" stroke="#bababa" d="M-0.019239578561612458 2.2347432721871785 L0.05694915254237288 2.2326356346469813 L0.1318267419962335 2.2255846290579595 L0.20606601248884923 2.2128421690520903 L0.27683615819209034 2.1949754796524124 L0.3444505194095134 2.1717776006737997 L0.4098613251155624 2.1431568408949913 L0.4683318465655664 2.1105370160511985 L0.5234297108673978 2.0728315454384902 L0.5720338983050847 2.031109611122634 L0.6136762127410871 1.9871494452193166 L0.6485875706214689 1.9394559850899544 L0.676271186440678 1.889331588456644 L0.6953094205754828 1.8370653468395237 L0.7071500729599282 1.7849884756630452 L0.711864406779661 1.7310179000801496 L0.711864406779661 -1.0994389527117283 L0.7071500729599282 -1.1534095282946242 L0.6953094205754828 -1.2054863994711027 L0.676271186440678 -1.257752641088223 L0.6485875706214689 -1.3078770377215334 L0.6136762127410871 -1.3555704978508953 L0.5720338983050847 -1.3995306637542135 L0.5234297108673978 -1.441252598070069 L0.4683318465655664 -1.4789580686827775 L0.4098613251155624 -1.5115778935265705 L0.3444505194095134 -1.5401986533053789 L0.27683615819209034 -1.5633965322839918 L0.20606601248884923 -1.581263221683669 L0.1318267419962335 -1.5940056816895387 L0.05694915254237288 -1.6010566872785603 L-0.019239578561612458 -1.6031643248187573 L-0.09491525423728812 -1.5982258407784922 L-0.1694915254237288 -1.5883488726979624 L-0.24203389830508473 -1.5735334205771672 L-0.31144067796610164 -1.5527917876080546 L-0.3781779661016949 -1.5268422987419343 L-0.4396809571286141 -1.4952231736529653 L-0.4961479198767334 -1.4608071544406838 L-0.5475880052151239 -1.4212634960023303 L-0.5932203389830508 -1.377813500455086 L-0.6309707241910631 -1.3319275859918955 L-0.662770309760374 -1.2826118152961026 L-0.6864406779661016 -1.2319982611609464 L-0.7021128395635012 -1.180035012248853 L-0.7101449275362318 -1.1259508144015717 L-0.7101449275362318 1.7575297617699925 L-0.7021128395635012 1.811613959617274 L-0.6864406779661016 1.8635772085293676 L-0.662770309760374 1.9141907626645234 L-0.6309707241910631 1.9635065333603163 L-0.5932203389830508 2.0093924478235072 L-0.5475880052151239 2.0528424433707513 L-0.4961479198767334 2.0923861018091046 L-0.4396809571286141 2.1268021210213863 L-0.3781779661016949 2.1584212461103554 L-0.31144067796610164 2.1843707349764756 L-0.24203389830508473 2.205112367945588 L-0.1694915254237288 2.2199278200663835 L-0.09491525423728812 2.229804788146913 z"/>
<path fill="#bababa" stroke="#bababa" d="M0.060185185185185175 1.773827419769428 L0.060185185185185175 2.2154517852516613 L-0.020833333333333325 2.217629575207053 L-0.020833333333333325 1.7760052097248196 z"/>
<path fill="#bababa" stroke="#bababa" d="M0.14130434782608692 1.7667320395921848 L0.14130434782608692 2.208356405074418 L0.06018518518518517 2.2154517852516613 L0.06018518518518517 1.773827419769428 z"/>
<path fill="#bababa" stroke="#bababa" d="M0.21959459459459454 1.7547112634943247 L0.21959459459459454 2.1963356289765583 L0.14130434782608692 2.208356405074418 L0.14130434782608692 1.7667320395921848 z"/>
<path fill="#bababa" stroke="#bababa" d="M0.29725609756097554 1.7363544132956228 L0.29725609756097554 2.177978778777856 L0.21959459459459454 2.1963356289765583 L0.21959459459459454 1.754711263494325 z"/>
<path fill="#bababa" stroke="#bababa" d="M0.37142857142857133 1.7121233710333361 L0.37142857142857133 2.1537477365155695 L0.29725609756097554 2.1779787787778564 L0.29725609756097554 1.7363544132956228 z"/>
<path fill="#bababa" stroke="#bababa" d="M0.4401041666666666 1.6840153620090832 L0.4401041666666666 2.1256397274913166 L0.37142857142857133 2.1537477365155695 L0.37142857142857133 1.712123371033336 z"/>
<path fill="#bababa" stroke="#bababa" d="M0.5058962264150946 1.6510190035893082 L0.5058962264150946 2.0926433690715416 L0.44010416666666685 2.1256397274913166 L0.4401041666666669 1.684015362009083 z"/>
<path fill="#bababa" stroke="#bababa" d="M0.566860465116279 1.6131065210615367 L0.5668604651162791 2.05473088654377 L0.5058962264150944 2.0926433690715416 L0.5058962264150942 1.6510190035893084 z"/>
<path fill="#bababa" stroke="#bababa" d="M0.6229166666666667 1.5706707282164798 L0.6229166666666666 2.012295093698713 L0.566860465116279 2.05473088654377 L0.566860465116279 1.6131065210615367 z"/>
<path fill="#bababa" stroke="#bababa" d="M0.671195652173913 1.5244704698771037 L0.6711956521739131 1.966094835359337 L0.6229166666666666 2.012295093698713 L0.6229166666666667 1.5706707282164798 z"/>
<path fill="#bababa" stroke="#bababa" d="M0.7140151515151515 1.476038314999593 L0.7140151515151515 1.9176626804818264 L0.671195652173913 1.966094835359337 L0.6711956521739131 1.5244704698771037 z"/>
<path fill="#bababa" stroke="#bababa" d="M0.7483552631578947 1.4246550969216607 L0.7483552631578947 1.866279462403894 L0.7140151515151515 1.9176626804818266 L0.7140151515151515 1.476038314999593 z"/>
<path fill="#bababa" stroke="#bababa" d="M0.7771739130434782 1.3701676462730428 L0.7771739130434782 1.8117920117552762 L0.7483552631578947 1.866279462403894 L0.7483552631578947 1.4246550969216607 z"/>
<path fill="#bababa" stroke="#bababa" d="M0.7959183673469388 1.314436431573679 L0.7959183673469388 1.7560607970559123 L0.7771739130434782 1.8117920117552762 L0.7771739130434782 1.3701676462730428 z"/>
<path fill="#bababa" stroke="#bababa" d="M0.8076636904761905 1.2585623163238042 L0.8076636904761904 1.7001866818060376 L0.7959183673469388 1.7560607970559121 L0.7959183673469388 1.314436431573679 z"/>
<path fill="#bababa" stroke="#bababa" d="M0.8125 1.2010686615014692 L0.8125 1.6426930269837028 L0.8076636904761905 1.7001866818060374 L0.8076636904761905 1.2585623163238042 z"/>
<path fill="#bababa" stroke="#bababa" d="M0.8125 -1.6293881912904085 L0.8125 -1.187763825808175 L0.8125 1.6426930269837026 L0.8125 1.2010686615014692 z"/>
<path fill="#bababa" stroke="#bababa" d="M0.8076636904761905 -1.6868818461127435 L0.8076636904761905 -1.24525748063051 L0.8125 -1.187763825808175 L0.8125 -1.6293881912904082 z"/>
<path fill="#bababa" stroke="#bababa" d="M0.7959183673469388 -1.7427559613626182 L0.7959183673469388 -1.3011315958803849 L0.8076636904761905 -1.24525748063051 L0.8076636904761905 -1.6868818461127435 z"/>
<path fill="#bababa" stroke="#bababa" d="M0.7771739130434782 -1.798487176061982 L0.7771739130434782 -1.3568628105797487 L0.7959183673469388 -1.3011315958803849 L0.7959183673469388 -1.7427559613626182 z"/>
<path fill="#bababa" stroke="#bababa" d="M0.7483552631578947 -1.8529746267106002 L0.7483552631578948 -1.4113502612283664 L0.7771739130434782 -1.3568628105797484 L0.7771739130434782 -1.7984871760619818 z"/>
<path fill="#bababa" stroke="#bababa" d="M0.7140151515151516 -1.9043578447885323 L0.7140151515151516 -1.4627334793062987 L0.7483552631578947 -1.4113502612283666 L0.7483552631578948 -1.8529746267106002 z"/>
<path fill="#bababa" stroke="#bababa" d="M0.6711956521739131 -1.952789999666043 L0.6711956521739131 -1.5111656341838096 L0.7140151515151517 -1.4627334793062987 L0.7140151515151517 -1.9043578447885323 z"/>
<path fill="#bababa" stroke="#bababa" d="M0.6229166666666666 -1.9989902580054193 L0.6229166666666668 -1.5573658925231857 L0.671195652173913 -1.5111656341838096 L0.6711956521739131 -1.952789999666043 z"/>
<path fill="#bababa" stroke="#bababa" d="M0.5668604651162793 -2.041426050850476 L0.5668604651162791 -1.5998016853682424 L0.6229166666666668 -1.5573658925231857 L0.6229166666666667 -1.9989902580054193 z"/>
<path fill="#bababa" stroke="#bababa" d="M0.5058962264150945 -2.0793385333782473 L0.5058962264150946 -1.637714167896014 L0.5668604651162791 -1.5998016853682424 L0.5668604651162792 -2.0414260508504762 z"/>
<path fill="#bababa" stroke="#bababa" d="M0.4401041666666673 -2.1123348917980223 L0.44010416666666696 -1.6707105263157893 L0.5058962264150947 -1.6377141678960145 L0.5058962264150946 -2.0793385333782477 z"/>
<path fill="#bababa" stroke="#bababa" d="M0.37142857142857133 -2.1404429008222756 L0.37142857142857133 -1.6988185353400422 L0.4401041666666666 -1.6707105263157895 L0.4401041666666666 -2.1123348917980227 z"/>
<path fill="#bababa" stroke="#bababa" d="M0.29725609756097554 -2.164673943084562 L0.29725609756097554 -1.723049577602329 L0.37142857142857133 -1.698818535340042 L0.37142857142857133 -2.140442900822275 z"/>
<path fill="#bababa" stroke="#bababa" d="M0.21959459459459454 -2.1830307932832644 L0.21959459459459454 -1.741406427801031 L0.29725609756097554 -1.723049577602329 L0.29725609756097554 -2.1646739430845625 z"/>
<path fill="#bababa" stroke="#bababa" d="M0.14130434782608692 -2.1950515693811243 L0.14130434782608692 -1.753427203898891 L0.21959459459459454 -1.741406427801031 L0.21959459459459454 -2.1830307932832644 z"/>
<path fill="#bababa" stroke="#bababa" d="M0.06018518518518517 -2.202146949558367 L0.06018518518518517 -1.760522584076134 L0.14130434782608692 -1.753427203898891 L0.14130434782608692 -2.1950515693811243 z"/>
<path fill="#bababa" stroke="#bababa" d="M-0.020833333333333325 -2.2043247395137593 L-0.020833333333333325 -1.7627003740315257 L0.060185185185185175 -1.760522584076134 L0.060185185185185175 -2.2021469495583674 z"/>
<path fill="#bababa" stroke="#bababa" d="M-0.10156249999999999 -2.1993252912683388 L-0.10156249999999999 -1.7577009257861052 L-0.02083333333333333 -1.7627003740315257 L-0.02083333333333333 -2.2043247395137593 z"/>
<path fill="#bababa" stroke="#bababa" d="M-0.1805555555555555 -2.1895827767388014 L-0.1805555555555555 -1.747958411256568 L-0.10156249999999999 -1.7577009257861054 L-0.10156249999999999 -2.1993252912683388 z"/>
<path fill="#bababa" stroke="#bababa" d="M-0.2585227272727272 -2.1740649211862144 L-0.2585227272727272 -1.7324405557039808 L-0.18055555555555552 -1.747958411256568 L-0.18055555555555552 -2.1895827767388014 z"/>
<path fill="#bababa" stroke="#bababa" d="M-0.3345588235294117 -2.153595044082287 L-0.3345588235294117 -1.7119706786000535 L-0.2585227272727272 -1.7324405557039806 L-0.2585227272727272 -2.174064921186214 z"/>
<path fill="#bababa" stroke="#bababa" d="M-0.40624999999999994 -2.1276665330839792 L-0.40624999999999994 -1.6860421676017459 L-0.3345588235294117 -1.7119706786000537 L-0.3345588235294117 -2.153595044082287 z"/>
<path fill="#bababa" stroke="#bababa" d="M-0.47395833333333326 -2.096524136721881 L-0.47395833333333326 -1.6548997712396474 L-0.40624999999999994 -1.6860421676017456 L-0.40624999999999994 -2.127666533083979 z"/>
<path fill="#bababa" stroke="#bababa" d="M-0.5368303571428573 -2.060590602457921 L-0.5368303571428571 -1.6189662369756879 L-0.47395833333333376 -1.6548997712396472 L-0.47395833333333337 -2.0965241367218805 z"/>
<path fill="#bababa" stroke="#bababa" d="M-0.5958333333333333 -2.0203450440822865 L-0.5958333333333337 -1.578720678600053 L-0.5368303571428573 -1.6189662369756876 L-0.5368303571428572 -2.0605906024579212 z"/>
<path fill="#bababa" stroke="#bababa" d="M-0.6469907407407407 -1.9770242437045271 L-0.6469907407407409 -1.5353998782222935 L-0.5958333333333333 -1.5787206786000532 L-0.5958333333333337 -2.020345044082286 z"/>
<path fill="#bababa" stroke="#bababa" d="M-0.693014705882353 -1.9293550860156348 L-0.693014705882353 -1.4877307205334012 L-0.6469907407407408 -1.5353998782222937 L-0.6469907407407407 -1.9770242437045273 z"/>
<path fill="#bababa" stroke="#bababa" d="M-0.7312500000000001 -1.8793606035614303 L-0.73125 -1.437736238079197 L-0.693014705882353 -1.4877307205334012 L-0.693014705882353 -1.9293550860156345 z"/>
<path fill="#bababa" stroke="#bababa" d="M-0.7632575757575758 -1.8265092935384144 L-0.7632575757575758 -1.3848849280561808 L-0.7312500000000001 -1.437736238079197 L-0.7312500000000001 -1.87936060356143 z"/>
<path fill="#bababa" stroke="#bababa" d="M-0.787109375 -1.7707660310174618 L-0.787109375 -1.3291416655352284 L-0.7632575757575757 -1.3848849280561808 L-0.7632575757575757 -1.8265092935384144 z"/>
<path fill="#bababa" stroke="#bababa" d="M-0.802710843373494 -1.7156286735239108 L-0.802710843373494 -1.2740043080416774 L-0.787109375 -1.3291416655352284 L-0.787109375 -1.7707660310174618 z"/>
<path fill="#bababa" stroke="#bababa" d="M-0.8106782511210762 -1.6581350187015758 L-0.8106782511210762 -1.2165106532193426 L-0.802710843373494 -1.2740043080416774 L-0.802710843373494 -1.7156286735239108 z"/>
<path fill="#bababa" stroke="#bababa" d="M-0.810678251121076 1.2298154889126367 L-0.810678251121076 1.6714398543948699 L-0.810678251121076 -1.2165106532193424 L-0.810678251121076 -1.658135018701576 z"/>
<path fill="#bababa" stroke="#bababa" d="M-0.802710843373494 1.2873091437349715 L-0.802710843373494 1.728933509217205 L-0.8106782511210762 1.67143985439487 L-0.8106782511210762 1.2298154889126365 z"/>
<path fill="#bababa" stroke="#bababa" d="M-0.787109375 1.3424465012285223 L-0.787109375 1.7840708667107559 L-0.802710843373494 1.728933509217205 L-0.802710843373494 1.2873091437349715 z"/>
<path fill="#bababa" stroke="#bababa" d="M-0.7632575757575757 1.398189763749475 L-0.7632575757575757 1.8398141292317083 L-0.787109375 1.7840708667107559 L-0.787109375 1.3424465012285225 z"/>
<path fill="#bababa" stroke="#bababa" d="M-0.73125 1.451041073772491 L-0.73125 1.8926654392547244 L-0.7632575757575757 1.8398141292317085 L-0.7632575757575757 1.398189763749475 z"/>
<path fill="#bababa" stroke="#bababa" d="M-0.693014705882353 1.5010355562266953 L-0.6930147058823529 1.9426599217089289 L-0.73125 1.8926654392547244 L-0.73125 1.451041073772491 z"/>
<path fill="#bababa" stroke="#bababa" d="M-0.6469907407407408 1.5487047139155876 L-0.6469907407407407 1.9903290793978212 L-0.6930147058823529 1.9426599217089286 L-0.693014705882353 1.501035556226695 z"/>
<path fill="#bababa" stroke="#bababa" d="M-0.5958333333333333 1.5920255142933473 L-0.5958333333333333 2.0336498797755804 L-0.6469907407407407 1.9903290793978212 L-0.6469907407407408 1.5487047139155876 z"/>
<path fill="#bababa" stroke="#bababa" d="M-0.5368303571428571 1.632271072668982 L-0.5368303571428572 2.073895438151215 L-0.5958333333333334 2.0336498797755804 L-0.5958333333333334 1.592025514293347 z"/>
<path fill="#bababa" stroke="#bababa" d="M-0.4739583333333334 1.6682046069329413 L-0.4739583333333336 2.1098289724151744 L-0.5368303571428572 2.073895438151215 L-0.5368303571428572 1.6322710726689817 z"/>
<path fill="#bababa" stroke="#bababa" d="M-0.40624999999999994 1.6993470032950395 L-0.40624999999999994 2.1409713687772727 L-0.47395833333333326 2.109828972415175 L-0.47395833333333326 1.6682046069329415 z"/>
<path fill="#bababa" stroke="#bababa" d="M-0.3345588235294117 1.7252755142933474 L-0.3345588235294117 2.1668998797755807 L-0.40624999999999994 2.1409713687772727 L-0.40624999999999994 1.6993470032950395 z"/>
<path fill="#bababa" stroke="#bababa" d="M-0.2585227272727272 1.7457453913972747 L-0.2585227272727272 2.187369756879508 L-0.3345588235294117 2.1668998797755807 L-0.3345588235294117 1.7252755142933476 z"/>
<path fill="#bababa" stroke="#bababa" d="M-0.18055555555555552 1.761263246949862 L-0.18055555555555552 2.2028876124320953 L-0.2585227272727272 2.187369756879508 L-0.2585227272727272 1.7457453913972747 z"/>
<path fill="#bababa" stroke="#bababa" d="M-0.10156249999999999 1.7710057614793993 L-0.10156249999999999 2.2126301269616326 L-0.1805555555555555 2.2028876124320953 L-0.1805555555555555 1.761263246949862 z"/>
<path fill="#bababa" stroke="#bababa" d="M-0.02083333333333333 1.7760052097248196 L-0.02083333333333333 2.217629575207053 L-0.10156249999999999 2.2126301269616326 L-0.10156249999999999 1.7710057614793993 z"/>
<path fill="#bababa" stroke="#bababa" d="M0.06018518518518518 1.7738274197694277 L-0.02083333333333333 1.7760052097248193 L-0.10156249999999999 1.771005761479399 L-0.18055555555555552 1.7612632469498617 L-0.2585227272727272 1.7457453913972745 L-0.3345588235294117 1.7252755142933471 L-0.40624999999999994 1.699347003295039 L-0.47395833333333326 1.6682046069329413 L-0.536830357142857 1.6322710726689817 L-0.5958333333333332 1.5920255142933473 L-0.6469907407407406 1.5487047139155878 L-0.6930147058823528 1.5010355562266953 L-0.7312499999999998 1.451041073772491 L-0.7632575757575756 1.398189763749475 L-0.7871093749999999 1.3424465012285223 L-0.8027108433734939 1.2873091437349715 L-0.810678251121076 1.2298154889126367 L-0.810678251121076 -1.658135018701576 L-0.8027108433734939 -1.7156286735239108 L-0.7871093749999999 -1.7707660310174618 L-0.7632575757575756 -1.8265092935384142 L-0.7312499999999998 -1.8793606035614303 L-0.6930147058823528 -1.9293550860156345 L-0.6469907407407406 -1.9770242437045271 L-0.5958333333333332 -2.0203450440822865 L-0.536830357142857 -2.060590602457921 L-0.47395833333333326 -2.0965241367218805 L-0.40624999999999994 -2.127666533083979 L-0.3345588235294117 -2.153595044082287 L-0.2585227272727272 -2.1740649211862135 L-0.18055555555555552 -2.189582776738801 L-0.10156249999999999 -2.1993252912683383 L-0.02083333333333333 -2.2043247395137584 L0.06018518518518518 -2.202146949558367 L0.14130434782608695 -2.195051569381124 L0.21959459459459457 -2.1830307932832635 L0.2972560975609756 -2.1646739430845616 L0.3714285714285714 -2.1404429008222747 L0.44010416666666663 -2.1123348917980223 L0.5058962264150942 -2.0793385333782473 L0.566860465116279 -2.041426050850476 L0.6229166666666666 -1.9989902580054193 L0.671195652173913 -1.9527899996660432 L0.7140151515151515 -1.9043578447885323 L0.7483552631578947 -1.8529746267106 L0.7771739130434782 -1.798487176061982 L0.7959183673469388 -1.742755961362618 L0.8076636904761905 -1.6868818461127433 L0.8125 -1.6293881912904085 L0.8125 1.2010686615014692 L0.8076636904761905 1.2585623163238042 L0.7959183673469388 1.314436431573679 L0.7771739130434782 1.3701676462730425 L0.7483552631578947 1.4246550969216607 L0.7140151515151515 1.476038314999593 L0.671195652173913 1.5244704698771039 L0.6229166666666666 1.5706707282164798 L0.566860465116279 1.6131065210615365 L0.5058962264150942 1.6510190035893082 L0.44010416666666663 1.684015362009083 L0.3714285714285714 1.7121233710333357 L0.2972560975609756 1.7363544132956226 L0.21959459459459457 1.7547112634943245 L0.14130434782608695 1.7667320395921848 z"/>
<path fill="#bababa" stroke="#bababa" d="M0.06018518518518518 2.2154517852516613 L0.14130434782608695 2.2083564050744178 L0.21959459459459457 2.196335628976558 L0.2972560975609756 2.177978778777856 L0.3714285714285714 2.153747736515569 L0.44010416666666663 2.1256397274913166 L0.5058962264150942 2.0926433690715416 L0.566860465116279 2.05473088654377 L0.6229166666666666 2.012295093698713 L0.671195652173913 1.966094835359337 L0.7140151515151515 1.9176626804818262 L0.7483552631578947 1.866279462403894 L0.7771739130434782 1.8117920117552762 L0.7959183673469388 1.7560607970559123 L0.8076636904761905 1.7001866818060376 L0.8125 1.6426930269837026 L0.8125 -1.187763825808175 L0.8076636904761905 -1.2452574806305101 L0.7959183673469388 -1.3011315958803849 L0.7771739130434782 -1.3568628105797484 L0.7483552631578947 -1.4113502612283666 L0.7140151515151515 -1.462733479306299 L0.671195652173913 -1.5111656341838096 L0.6229166666666666 -1.5573658925231857 L0.566860465116279 -1.5998016853682426 L0.5058962264150942 -1.6377141678960143 L0.44010416666666663 -1.670710526315789 L0.3714285714285714 -1.6988185353400418 L0.2972560975609756 -1.7230495776023287 L0.21959459459459457 -1.7414064278010306 L0.14130434782608695 -1.7534272038988905 L0.06018518518518518 -1.7605225840761336 L-0.020833333333333332 -1.7627003740315252 L-0.1015625 -1.7577009257861047 L-0.18055555555555555 -1.7479584112565674 L-0.25852272727272724 -1.7324405557039801 L-0.33455882352941174 -1.7119706786000533 L-0.40625 -1.6860421676017452 L-0.4739583333333333 -1.654899771239647 L-0.5368303571428571 -1.6189662369756874 L-0.5958333333333333 -1.5787206786000532 L-0.6469907407407407 -1.5353998782222937 L-0.6930147058823529 -1.4877307205334012 L-0.73125 -1.4377362380791967 L-0.7632575757575757 -1.3848849280561808 L-0.787109375 -1.3291416655352282 L-0.802710843373494 -1.2740043080416774 L-0.8106782511210762 -1.2165106532193426 L-0.8106782511210762 1.6714398543948699 L-0.802710843373494 1.728933509217205 L-0.787109375 1.7840708667107559 L-0.7632575757575757 1.8398141292317083 L-0.73125 1.8926654392547244 L-0.6930147058823529 1.9426599217089289 L-0.6469907407407407 1.990329079397821 L-0.5958333333333333 2.033649879775581 L-0.5368303571428571 2.073895438151215 L-0.4739583333333333 2.1098289724151744 L-0.40625 2.1409713687772727 L-0.33455882352941174 2.1668998797755807 L-0.25852272727272724 2.1873697568795074 L-0.18055555555555555 2.202887612432095 L-0.1015625 2.212630126961632 L-0.020833333333333332 2.2176295752070527 z"/>
</svg>