<?xml version="1.0" encoding="UTF-8"?>
<!-- Generated by jsxcad -->
<!DOCTYPE svg PUBLIC "-//W3C//DTD SVG 1.1 Tiny//EN" "http://www.w3.org/Graphics/SVG/1.1/DTD/svg11-tiny.dtd">
<svg baseProfile="tiny" height="3.9974436462187066mm" width="1.623178251121077mm" viewBox="-0.8106782511210766 -2.0189537985029693 1.623178251121077 3.9974436462187066" version="1.1" stroke="black" stroke-width=".1" fill="none" xmlns="http://www.w3.org/2000/svg">
<path fill="#bababa" stroke="#bababa" d="M-0.06471270077124266 0.5999984815090555 L-0.035744680851063824 0.6042698661744346 L0.011666666666666665 0.6060710659898476 L0.05894736842105263 0.6014633455318142 L0.1041860465116279 0.5919187817258882 L0.14666666666666664 0.576718180109043 L0.1848 0.5565380710659897 L0.21777777777777776 0.5324791878172587 L0.24425531914893617 0.5044649225562929 L0.26399999999999996 0.47398307952622665 L0.27575757575757576 0.44158413945024416 L0.27999999999999997 0.40793908629441616 L0.27999999999999997 -0.3845888324873095 L0.27575757575757576 -0.41823388564313757 L0.26399999999999996 -0.45063282571912006 L0.24425531914893617 -0.4811146687491864 L0.21777777777777776 -0.5091289340101521 L0.1848 -0.533187817258883 L0.14666666666666664 -0.5533679263019363 L0.1041860465116279 -0.5685685279187817 L0.05894736842105263 -0.5781130917247077 L0.011666666666666665 -0.5827208121827411 L-0.035744680851063824 -0.580919612367328 L-0.08195121951219511 -0.5741063782829395 L-0.12599999999999997 -0.5614923857868018 L-0.16624999999999998 -0.5440609137055835 L-0.20222222222222222 -0.5217571261226083 L-0.23172413793103447 -0.4955427411167512 L-0.2552941176470588 -0.46617258883248724 L-0.27096774193548384 -0.43469117218040715 L-0.2787155963302752 -0.4015715736040608 L-0.2787155963302752 0.4249218274111674 L-0.27096774193548384 0.4580414259875138 L-0.2552941176470588 0.4895228426395939 L-0.23172413793103447 0.5188929949238578 L-0.20222222222222222 0.5451073799297148 L-0.16624999999999998 0.5674111675126902 L-0.12599999999999997 0.5848426395939085 L-0.08195121951219511 0.5974566320900463 z"/>
<path fill="#bababa" stroke="#bababa" d="M0.058947368421052616 0.6014633455318144 L0.011666666666666664 0.6060710659898476 L0.011666666666666664 0.4824162436548223 L0.058947368421052616 0.47780852319678896 z"/>
<path fill="#bababa" stroke="#bababa" d="M0.10418604651162788 0.5919187817258883 L0.05894736842105262 0.6014633455318144 L0.05894736842105262 0.477808523196789 L0.10418604651162788 0.4682639593908629 z"/>
<path fill="#bababa" stroke="#bababa" d="M0.10418604651162788 0.5919187817258883 L0.10418604651162788 0.4682639593908629 L0.1466666666666666 0.4530633577740177 L0.1466666666666666 0.576718180109043 z"/>
<path fill="#bababa" stroke="#bababa" d="M0.14666666666666667 0.4530633577740176 L0.1848 0.43288324873096434 L0.1848 0.5565380710659897 L0.14666666666666667 0.576718180109043 z"/>
<path fill="#bababa" stroke="#bababa" d="M0.2177777777777778 0.5324791878172588 L0.18480000000000002 0.5565380710659896 L0.1848 0.4328832487309644 L0.21777777777777776 0.40882436548223344 z"/>
<path fill="#bababa" stroke="#bababa" d="M0.21777777777777776 0.40882436548223344 L0.24425531914893617 0.3808101002212676 L0.24425531914893617 0.5044649225562929 L0.2177777777777778 0.5324791878172588 z"/>
<path fill="#bababa" stroke="#bababa" d="M0.2442553191489362 0.5044649225562929 L0.24425531914893617 0.3808101002212676 L0.26399999999999996 0.3503282571912013 L0.26399999999999996 0.4739830795262267 z"/>
<path fill="#bababa" stroke="#bababa" d="M0.2639999999999999 0.4739830795262267 L0.26399999999999996 0.3503282571912013 L0.27575757575757576 0.31792931711521877 L0.27575757575757576 0.44158413945024416 z"/>
<path fill="#bababa" stroke="#bababa" d="M0.27999999999999997 0.28428426395939077 L0.2799999999999999 0.40793908629441616 L0.27575757575757576 0.44158413945024416 L0.27575757575757576 0.31792931711521877 z"/>
<path fill="#bababa" stroke="#bababa" d="M0.27999999999999997 0.1581530689214228 L0.27999999999999997 0.40793908629441616 L0.27999999999999997 0.2842842639593908 L0.27999999999999997 -0.5082436548223349 L0.27999999999999997 -0.3845888324873096 z"/>
<path fill="#bababa" stroke="#bababa" d="M0.27823232323232316 -0.3986076046355712 L0.27999999999999997 -0.3845888324873096 L0.27999999999999997 -0.5082436548223349 L0.27575757575757576 -0.5418887079781629 L0.27575757575757576 -0.4182338856431375 z"/>
<path fill="#bababa" stroke="#bababa" d="M0.2658988566476483 -0.44540037440360136 L0.27575757575757576 -0.41823388564313757 L0.27575757575757576 -0.5418887079781628 L0.26399999999999996 -0.5742876480541454 L0.26399999999999996 -0.45063282571912006 z"/>
<path fill="#bababa" stroke="#bababa" d="M0.24895246745291513 -0.47386321007174137 L0.26399999999999996 -0.45063282571912 L0.26399999999999996 -0.5742876480541454 L0.24425531914893617 -0.6047694910842117 L0.2442553191489362 -0.4811146687491864 z"/>
<path fill="#bababa" stroke="#bababa" d="M0.2309316443679594 -0.49521163320419065 L0.2442553191489362 -0.4811146687491864 L0.2442553191489362 -0.6047694910842117 L0.21777777777777776 -0.6327837563451776 L0.21777777777777782 -0.5091289340101521 z"/>
<path fill="#bababa" stroke="#bababa" d="M0.19634755512048127 -0.5247633175147204 L0.21777777777777782 -0.5091289340101521 L0.21777777777777793 -0.6327837563451775 L0.18480000000000002 -0.6568426395939085 L0.18480000000000013 -0.533187817258883 z"/>
<path fill="#bababa" stroke="#bababa" d="M0.15084643044721202 -0.5511560008946214 L0.1848000000000002 -0.5331878172588831 L0.18480000000000005 -0.6568426395939084 L0.1466666666666667 -0.6770227486369618 L0.14666666666666675 -0.5533679263019363 z"/>
<path fill="#bababa" stroke="#bababa" d="M0.10418604651162788 -0.5685685279187818 L0.1466666666666666 -0.5533679263019365 L0.1466666666666666 -0.6770227486369619 L0.10418604651162788 -0.6922233502538071 z"/>
<path fill="#bababa" stroke="#bababa" d="M0.10418604651162788 -0.5685685279187818 L0.10418604651162788 -0.6922233502538071 L0.05894736842105262 -0.7017679140597332 L0.05894736842105262 -0.5781130917247078 z"/>
<path fill="#bababa" stroke="#bababa" d="M0.058947368421052616 -0.5781130917247078 L0.058947368421052616 -0.7017679140597333 L0.011666666666666664 -0.7063756345177665 L0.011666666666666664 -0.5827208121827412 z"/>
<path fill="#bababa" stroke="#bababa" d="M-0.03574468085106382 -0.7045744347023536 L-0.03574468085106382 -0.5809196123673281 L0.011666666666666664 -0.5827208121827411 L0.011666666666666664 -0.7063756345177665 z"/>
<path fill="#bababa" stroke="#bababa" d="M-0.0819512195121951 -0.6977612006179652 L-0.0819512195121951 -0.5741063782829396 L-0.03574468085106382 -0.580919612367328 L-0.03574468085106382 -0.7045744347023536 z"/>
<path fill="#bababa" stroke="#bababa" d="M-0.0819512195121951 -0.5741063782829398 L-0.0819512195121951 -0.6977612006179651 L-0.12599999999999995 -0.6851472081218274 L-0.12599999999999995 -0.5614923857868019 z"/>
<path fill="#bababa" stroke="#bababa" d="M-0.16624999999999995 -0.6677157360406092 L-0.16624999999999995 -0.5440609137055837 L-0.12599999999999995 -0.561492385786802 L-0.12599999999999995 -0.6851472081218274 z"/>
<path fill="#bababa" stroke="#bababa" d="M-0.1662500000000001 -0.5440609137055835 L-0.16625000000000004 -0.667715736040609 L-0.2022222222222224 -0.6454119484576336 L-0.20222222222222225 -0.5217571261226083 z"/>
<path fill="#bababa" stroke="#bababa" d="M-0.23172413793103455 -0.6191975634517765 L-0.23172413793103455 -0.4955427411167512 L-0.2022222222222223 -0.5217571261226083 L-0.2022222222222223 -0.6454119484576337 z"/>
<path fill="#bababa" stroke="#bababa" d="M-0.2552941176470588 -0.5898274111675126 L-0.2552941176470588 -0.46617258883248724 L-0.23172413793103452 -0.4955427411167512 L-0.2317241379310345 -0.6191975634517766 z"/>
<path fill="#bababa" stroke="#bababa" d="M-0.2552941176470588 -0.5898274111675126 L-0.27096774193548384 -0.5583459945154325 L-0.27096774193548384 -0.4346911721804072 L-0.2552941176470588 -0.4661725888324873 z"/>
<path fill="#bababa" stroke="#bababa" d="M-0.2787155963302752 -0.5252263959390862 L-0.2787155963302752 -0.40157157360406087 L-0.27096774193548384 -0.4346911721804072 L-0.27096774193548384 -0.5583459945154324 z"/>
<path fill="#bababa" stroke="#bababa" d="M-0.2787155963302752 0.41949721887694785 L-0.2787155963302752 -0.40157157360406087 L-0.2787155963302752 -0.5252263959390862 L-0.2787155963302752 0.30126700507614207 L-0.2787155963302752 0.42492182741116746 z"/>
<path fill="#bababa" stroke="#bababa" d="M-0.2787155963302752 0.4249218274111674 L-0.2787155963302752 0.30126700507614207 L-0.27096774193548384 0.3343866036524884 L-0.27096774193548384 0.45804142598751374 z"/>
<path fill="#bababa" stroke="#bababa" d="M-0.26443706514864007 0.4711586829258805 L-0.27096774193548384 0.45804142598751374 L-0.27096774193548384 0.3343866036524884 L-0.2552941176470588 0.3658680203045685 L-0.2552941176470588 0.48952284263959384 z"/>
<path fill="#bababa" stroke="#bababa" d="M-0.245473292765382 0.5017604060913705 L-0.2552941176470588 0.48952284263959384 L-0.2552941176470588 0.3658680203045685 L-0.23172413793103447 0.3952381725888324 L-0.23172413793103447 0.5188929949238578 z"/>
<path fill="#bababa" stroke="#bababa" d="M-0.21943167305236272 0.5298156553429648 L-0.23172413793103447 0.5188929949238578 L-0.2317241379310345 0.3952381725888324 L-0.20222222222222225 0.42145255759468947 L-0.20222222222222222 0.5451073799297149 z"/>
<path fill="#bababa" stroke="#bababa" d="M-0.16624999999999998 0.4437563451776649 L-0.16625 0.5674111675126902 L-0.20222222222222225 0.5451073799297148 L-0.20222222222222222 0.4214525575946895 z"/>
<path fill="#bababa" stroke="#bababa" d="M-0.14947916666666664 0.5746742808798645 L-0.16624999999999995 0.5674111675126903 L-0.16624999999999995 0.44375634517766493 L-0.12599999999999995 0.46118781725888325 L-0.12599999999999995 0.5848426395939086 z"/>
<path fill="#bababa" stroke="#bababa" d="M-0.1076463414634146 0.5900984698006326 L-0.12599999999999995 0.5848426395939086 L-0.12599999999999995 0.4611878172588832 L-0.0819512195121951 0.47380180975502095 L-0.0819512195121951 0.5974566320900463 z"/>
<path fill="#bababa" stroke="#bababa" d="M-0.03574468085106382 0.6042698661744347 L-0.0819512195121951 0.5974566320900463 L-0.0819512195121951 0.47380180975502095 L-0.03574468085106382 0.48061504383940934 z"/>
<path fill="#bababa" stroke="#bababa" d="M0.011666666666666664 0.48241624365482233 L0.011666666666666664 0.6060710659898476 L-0.03574468085106382 0.6042698661744347 L-0.03574468085106382 0.48061504383940934 z"/>
<path fill="#bababa" stroke="#bababa" d="M0.1041860465116279 0.4682639593908629 L0.05894736842105263 0.47780852319678896 L0.011666666666666665 0.4824162436548223 L-0.035744680851063824 0.4806150438394093 L-0.08195121951219511 0.4738018097550209 L-0.12599999999999997 0.4611878172588832 L-0.16624999999999998 0.4437563451776649 L-0.20222222222222222 0.4214525575946895 L-0.23172413793103447 0.3952381725888324 L-0.2552941176470588 0.3658680203045685 L-0.27096774193548384 0.3343866036524884 L-0.2787155963302752 0.301267005076142 L-0.2787155963302752 -0.5252263959390862 L-0.27096774193548384 -0.5583459945154325 L-0.2552941176470588 -0.5898274111675126 L-0.23172413793103447 -0.6191975634517766 L-0.20222222222222222 -0.6454119484576336 L-0.16624999999999998 -0.667715736040609 L-0.12599999999999997 -0.6851472081218273 L-0.08195121951219511 -0.697761200617965 L-0.035744680851063824 -0.7045744347023534 L0.011666666666666665 -0.7063756345177663 L0.05894736842105263 -0.701767914059733 L0.1041860465116279 -0.692223350253807 L0.14666666666666664 -0.6770227486369618 L0.1848 -0.6568426395939084 L0.21777777777777776 -0.6327837563451775 L0.24425531914893617 -0.6047694910842117 L0.26399999999999996 -0.5742876480541453 L0.27575757575757576 -0.5418887079781629 L0.27999999999999997 -0.5082436548223348 L0.27999999999999997 0.28428426395939077 L0.27575757575757576 0.31792931711521877 L0.26399999999999996 0.3503282571912013 L0.24425531914893617 0.38081010022126766 L0.21777777777777776 0.40882436548223344 L0.1848 0.4328832487309644 L0.14666666666666664 0.4530633577740176 z"/>
<path fill="#bababa" stroke="#bababa" d="M0.7483552631578947 1.6504899887196838 L0.6485875706214689 1.723666511405744 L0.7140151515151515 1.7018732067976161 z"/>
<path fill="#bababa" stroke="#bababa" d="M-0.02083333333333333 2.001840101522842 L0.060185185185185175 1.9996623115674508 L-0.019239578561612455 2.018953798502968 z"/>
<path fill="#bababa" stroke="#bababa" d="M-0.8027108433734941 -1.489793781725888 L-0.7021128395635012 -1.3958244859330633 L-0.787109375 -1.5449311392194387 z"/>
<path fill="#bababa" stroke="#bababa" d="M0.7071500729599282 1.5691990019788347 L0.6953094205754828 1.6212758731553132 L0.7959183673469387 1.540271323371702 z"/>
<path fill="#bababa" stroke="#bababa" d="M-0.7871093750000001 -1.5449311392194387 L-0.7021128395635012 -1.3958244859330635 L-0.6864406779661016 -1.4477877348451569 z"/>
<path fill="#bababa" stroke="#bababa" d="M0.5234297108673976 1.85704207175428 L0.6229166666666665 1.796505620014503 L0.5720338983050846 1.8153201374384242 z"/>
<path fill="#bababa" stroke="#bababa" d="M0.5668604651162789 1.8389414128595598 L0.6229166666666665 1.796505620014503 L0.5234297108673976 1.85704207175428 z"/>
<path fill="#bababa" stroke="#bababa" d="M-0.6309707241910631 1.747717059676106 L-0.6627703097603741 1.698401288980313 L-0.7312500000000001 1.6768759655705139 z"/>
<path fill="#bababa" stroke="#bababa" d="M-0.7632575757575756 1.624024655547498 L-0.662770309760374 1.698401288980313 L-0.6864406779661016 1.647787734845157 z"/>
<path fill="#bababa" stroke="#bababa" d="M-0.7021128395635012 1.5958244859330635 L-0.787109375 1.5682813930265453 L-0.6864406779661016 1.647787734845157 z"/>
<path fill="#bababa" stroke="#bababa" d="M-0.4961479198767333 1.8765966281248945 L-0.5475880052151237 1.837052969686541 L-0.5958333333333332 1.8178604060913703 z"/>
<path fill="#bababa" stroke="#bababa" d="M-0.6469907407407406 1.774539605713611 L-0.5932203389830507 1.793602974139297 L-0.6930147058823528 1.7268704480247183 z"/>
<path fill="#bababa" stroke="#bababa" d="M0.7959183673469389 -1.5169210695645954 L0.7771739130434782 -1.5726522842639592 L0.695309420575483 -1.4212758731553135 z"/>
<path fill="#bababa" stroke="#bababa" d="M-0.6864406779661016 1.647787734845157 L-0.787109375 1.5682813930265456 L-0.7632575757575758 1.6240246555474978 z"/>
<path fill="#bababa" stroke="#bababa" d="M0.613676212741087 -1.571359971535106 L0.6711956521739129 -1.72695510786802 L0.5720338983050846 -1.615320137438424 z"/>
<path fill="#bababa" stroke="#bababa" d="M0.7118644067796609 1.515228426395939 L0.7071500729599282 1.5691990019788347 L0.8076636904761904 1.484397208121827 z"/>
<path fill="#bababa" stroke="#bababa" d="M-0.6930147058823528 1.7268704480247183 L-0.5932203389830507 1.793602974139297 L-0.630970724191063 1.747717059676106 z"/>
<path fill="#bababa" stroke="#bababa" d="M0.6229166666666665 -1.7731553662073962 L0.5668604651162789 -1.8155911590524532 L0.5234297108673976 -1.6570420717542798 z"/>
<path fill="#bababa" stroke="#bababa" d="M0.5058962264150941 -1.8535036415802246 L0.4401041666666665 -1.8864999999999994 L0.40986132511556234 -1.7273673672107808 z"/>
<path fill="#bababa" stroke="#bababa" d="M-0.18055555555555552 -1.9637478849407781 L-0.2585227272727272 -1.9482300293881907 L-0.16949152542372878 -1.8041383463821732 z"/>
<path fill="#bababa" stroke="#bababa" d="M0.4401041666666665 1.9098502538071063 L0.3444505194095133 1.9559881269895893 L0.37142857142857133 1.937958262831359 z"/>
<path fill="#bababa" stroke="#bababa" d="M0.3444505194095133 -1.7559881269895894 L0.4401041666666665 -1.8864999999999994 L0.37142857142857133 -1.914608009024252 z"/>
<path fill="#bababa" stroke="#bababa" d="M0.5720338983050846 -1.615320137438424 L0.6711956521739129 -1.72695510786802 L0.6229166666666665 -1.7731553662073964 z"/>
<path fill="#bababa" stroke="#bababa" d="M-0.6930147058823528 1.7268704480247186 L-0.630970724191063 1.747717059676106 L-0.7312499999999998 1.676875965570514 z"/>
<path fill="#bababa" stroke="#bababa" d="M0.46833184656556637 1.8947475423669884 L0.5058962264150941 1.8768538953873315 L0.5668604651162789 1.8389414128595598 z"/>
<path fill="#bababa" stroke="#bababa" d="M0.6953094205754828 -1.4212758731553132 L0.7771739130434783 -1.5726522842639592 L0.676271186440678 -1.4735421147724335 z"/>
<path fill="#bababa" stroke="#bababa" d="M-0.6469907407407406 -1.7511893519065043 L-0.5475880052151237 -1.6370529696865408 L-0.5958333333333332 -1.7945101522842637 z"/>
<path fill="#bababa" stroke="#bababa" d="M-0.16949152542372878 -1.8041383463821732 L-0.2585227272727272 -1.9482300293881907 L-0.2420338983050847 -1.789322894261378 z"/>
<path fill="#bababa" stroke="#bababa" d="M0.7140151515151514 1.7018732067976161 L0.6485875706214688 1.7236665114057441 L0.613676212741087 1.7713599715351063 z"/>
<path fill="#bababa" stroke="#bababa" d="M-0.802710843373494 1.5131440355329946 L-0.7021128395635012 1.5958244859330635 L-0.7101449275362319 1.541740288085782 z"/>
<path fill="#bababa" stroke="#bababa" d="M-0.7101449275362318 -1.341740288085782 L-0.7021128395635012 -1.3958244859330635 L-0.8027108433734939 -1.489793781725888 z"/>
<path fill="#bababa" stroke="#bababa" d="M0.5234297108673976 -1.6570420717542798 L0.5720338983050846 -1.615320137438424 L0.6229166666666665 -1.7731553662073962 z"/>
<path fill="#bababa" stroke="#bababa" d="M0.13182674199623348 2.0097951553737494 L0.21959459459459452 1.9805461552923478 L0.2060660124888492 1.9970526953678798 z"/>
<path fill="#bababa" stroke="#bababa" d="M0.5668604651162789 1.8389414128595598 L0.5234297108673976 1.85704207175428 L0.46833184656556637 1.8947475423669884 z"/>
<path fill="#bababa" stroke="#bababa" d="M0.13182674199623348 2.0097951553737494 L0.05694915254237287 2.0168461609627713 L0.14130434782608692 1.992566931390208 z"/>
<path fill="#bababa" stroke="#bababa" d="M0.7140151515151514 -1.6785229529905095 L0.6711956521739129 -1.7269551078680199 L0.613676212741087 -1.571359971535106 z"/>
<path fill="#bababa" stroke="#bababa" d="M0.4683318465655663 1.8947475423669884 L0.40986132511556234 1.927367367210781 L0.5058962264150941 1.8768538953873315 z"/>
<path fill="#bababa" stroke="#bababa" d="M-0.47395833333333326 1.8940394987309643 L-0.439680957128614 1.911012647337176 L-0.536830357142857 1.858105964467005 z"/>
<path fill="#bababa" stroke="#bababa" d="M-0.24203389830508468 -1.7893228942613777 L-0.2585227272727272 -1.9482300293881907 L-0.3345588235294117 -1.9277601522842636 z"/>
<path fill="#bababa" stroke="#bababa" d="M0.13182674199623348 -1.8097951553737492 L0.2060660124888492 -1.7970526953678796 L0.21959459459459452 -1.9571959014852411 z"/>
<path fill="#bababa" stroke="#bababa" d="M0.7959183673469388 1.5402713233717018 L0.6953094205754828 1.6212758731553134 L0.7771739130434782 1.5960025380710656 z"/>
<path fill="#bababa" stroke="#bababa" d="M-0.7632575757575757 -1.6006744017403913 L-0.787109375 -1.5449311392194387 L-0.6864406779661018 -1.4477877348451569 z"/>
<path fill="#bababa" stroke="#bababa" d="M0.060185185185185175 -1.976312057760344 L-0.02083333333333333 -1.9784898477157358 L-0.019239578561612455 -1.8189537985029678 z"/>
<path fill="#bababa" stroke="#bababa" d="M0.6711956521739129 1.7503053616751267 L0.7140151515151514 1.7018732067976161 L0.613676212741087 1.7713599715351063 z"/>
<path fill="#bababa" stroke="#bababa" d="M-0.49614791987673335 -1.6765966281248943 L-0.536830357142857 -1.8347557106598984 L-0.5958333333333332 -1.7945101522842635 z"/>
<path fill="#bababa" stroke="#bababa" d="M0.14130434782608692 1.992566931390208 L0.21959459459459454 1.9805461552923478 L0.13182674199623348 2.0097951553737494 z"/>
<path fill="#bababa" stroke="#bababa" d="M0.8076636904761906 -1.4610469543147204 L0.7071500729599282 -1.3691990019788347 L0.711864406779661 -1.3152284263959388 z"/>
<path fill="#bababa" stroke="#bababa" d="M-0.37817796610169485 1.9426317724261453 L-0.47395833333333326 1.8940394987309643 L-0.4062499999999999 1.9251818950930626 z"/>
<path fill="#bababa" stroke="#bababa" d="M-0.6469907407407406 1.774539605713611 L-0.5475880052151237 1.837052969686541 L-0.5932203389830507 1.793602974139297 z"/>
<path fill="#bababa" stroke="#bababa" d="M0.2768361581920903 -1.7791860059682023 L0.3444505194095133 -1.7559881269895892 L0.3714285714285713 -1.9146080090242523 z"/>
<path fill="#bababa" stroke="#bababa" d="M-0.019239578561612455 -1.8189537985029678 L-0.02083333333333333 -1.9784898477157356 L-0.10156249999999997 -1.9734903994703155 z"/>
<path fill="#bababa" stroke="#bababa" d="M0.7071500729599282 -1.3691990019788347 L0.7959183673469389 -1.5169210695645954 L0.6953094205754828 -1.4212758731553132 z"/>
<path fill="#bababa" stroke="#bababa" d="M0.6762711864406781 1.6735421147724334 L0.648587570621469 1.723666511405744 L0.7483552631578947 1.6504899887196838 z"/>
<path fill="#bababa" stroke="#bababa" d="M0.4683318465655663 -1.6947475423669882 L0.5668604651162789 -1.8155911590524532 L0.5058962264150941 -1.8535036415802248 z"/>
<path fill="#bababa" stroke="#bababa" d="M-0.8027108433734941 1.5131440355329944 L-0.7871093750000001 1.5682813930265453 L-0.7021128395635012 1.5958244859330635 z"/>
<path fill="#bababa" stroke="#bababa" d="M0.13182674199623348 -1.8097951553737492 L0.21959459459459454 -1.9571959014852411 L0.14130434782608692 -1.969216677583101 z"/>
<path fill="#bababa" stroke="#bababa" d="M-0.6930147058823528 -1.7035201942176117 L-0.630970724191063 -1.5477170596761058 L-0.5932203389830507 -1.5936029741392967 z"/>
<path fill="#bababa" stroke="#bababa" d="M0.14130434782608692 1.992566931390208 L0.05694915254237287 2.0168461609627713 L0.06018518518518517 1.9996623115674508 z"/>
<path fill="#bababa" stroke="#bababa" d="M0.40986132511556234 -1.727367367210781 L0.4401041666666666 -1.8864999999999996 L0.3444505194095133 -1.7559881269895892 z"/>
<path fill="#bababa" stroke="#bababa" d="M0.2060660124888492 1.9970526953678798 L0.21959459459459454 1.9805461552923478 L0.29725609756097554 1.9621893050936459 z"/>
<path fill="#bababa" stroke="#bababa" d="M-0.5932203389830507 -1.5936029741392967 L-0.6469907407407406 -1.751189351906504 L-0.6930147058823528 -1.7035201942176117 z"/>
<path fill="#bababa" stroke="#bababa" d="M0.7771739130434782 1.5960025380710656 L0.6953094205754828 1.6212758731553134 L0.6762711864406781 1.6735421147724332 z"/>
<path fill="#bababa" stroke="#bababa" d="M-0.5958333333333332 -1.7945101522842637 L-0.5475880052151237 -1.6370529696865408 L-0.49614791987673335 -1.6765966281248943 z"/>
<path fill="#bababa" stroke="#bababa" d="M0.05694915254237287 -1.816846160962771 L0.060185185185185175 -1.9763120577603441 L-0.019239578561612455 -1.818953798502968 z"/>
<path fill="#bababa" stroke="#bababa" d="M0.5058962264150941 1.8768538953873315 L0.40986132511556234 1.927367367210781 L0.4401041666666666 1.9098502538071063 z"/>
<path fill="#bababa" stroke="#bababa" d="M-0.5958333333333332 1.8178604060913703 L-0.5475880052151237 1.837052969686541 L-0.6469907407407406 1.774539605713611 z"/>
<path fill="#bababa" stroke="#bababa" d="M0.21959459459459454 -1.957195901485241 L0.2060660124888492 -1.7970526953678796 L0.29725609756097554 -1.938839051286539 z"/>
<path fill="#bababa" stroke="#bababa" d="M0.060185185185185175 1.9996623115674508 L0.05694915254237287 2.0168461609627713 L-0.019239578561612455 2.018953798502968 z"/>
<path fill="#bababa" stroke="#bababa" d="M0.7140151515151514 -1.6785229529905095 L0.613676212741087 -1.571359971535106 L0.6485875706214688 -1.523666511405744 z"/>
<path fill="#bababa" stroke="#bababa" d="M-0.16949152542372878 2.004138346382173 L-0.25852272727272724 1.9715802831952975 L-0.18055555555555552 1.9870981387478848 z"/>
<path fill="#bababa" stroke="#bababa" d="M0.8076636904761905 1.484397208121827 L0.707150072959928 1.5691990019788349 L0.7959183673469389 1.5402713233717018 z"/>
<path fill="#bababa" stroke="#bababa" d="M-0.37817796610169485 1.9426317724261453 L-0.43968095712861405 1.911012647337176 L-0.4739583333333332 1.8940394987309643 z"/>
<path fill="#bababa" stroke="#bababa" d="M-0.43968095712861405 -1.7110126473371758 L-0.536830357142857 -1.8347557106598982 L-0.49614791987673335 -1.6765966281248943 z"/>
<path fill="#bababa" stroke="#bababa" d="M-0.536830357142857 1.858105964467005 L-0.43968095712861405 1.911012647337176 L-0.49614791987673335 1.8765966281248945 z"/>
<path fill="#bababa" stroke="#bababa" d="M-0.47395833333333326 -1.8706892449238575 L-0.536830357142857 -1.8347557106598984 L-0.43968095712861405 -1.711012647337176 z"/>
<path fill="#bababa" stroke="#bababa" d="M-0.7632575757575757 -1.6006744017403913 L-0.6627703097603741 -1.4984012889803129 L-0.73125 -1.6535257117634075 z"/>
<path fill="#bababa" stroke="#bababa" d="M0.6485875706214689 -1.5236665114057437 L0.676271186440678 -1.4735421147724335 L0.7483552631578948 -1.627139734912577 z"/>
<path fill="#bababa" stroke="#bababa" d="M0.29725609756097554 1.9621893050936459 L0.3714285714285713 1.937958262831359 L0.2768361581920903 1.9791860059682025 z"/>
<path fill="#bababa" stroke="#bababa" d="M-0.37817796610169485 -1.742631772426145 L-0.3114406779661016 -1.7685812612922651 L-0.4062499999999999 -1.9018316412859557 z"/>
<path fill="#bababa" stroke="#bababa" d="M-0.3345588235294117 1.9511104060913704 L-0.2585227272727272 1.9715802831952975 L-0.2420338983050847 1.9893228942613779 z"/>
<path fill="#bababa" stroke="#bababa" d="M0.37142857142857133 1.937958262831359 L0.3444505194095133 1.9559881269895893 L0.27683615819209034 1.9791860059682025 z"/>
<path fill="#bababa" stroke="#bababa" d="M-0.73125 1.676875965570514 L-0.662770309760374 1.698401288980313 L-0.7632575757575758 1.6240246555474978 z"/>
<path fill="#bababa" stroke="#bababa" d="M0.5234297108673976 -1.6570420717542798 L0.5668604651162789 -1.815591159052453 L0.4683318465655663 -1.6947475423669882 z"/>
<path fill="#bababa" stroke="#bababa" d="M-0.37817796610169485 -1.742631772426145 L-0.40624999999999994 -1.9018316412859557 L-0.4739583333333332 -1.8706892449238577 z"/>
<path fill="#bababa" stroke="#bababa" d="M0.6711956521739129 1.7503053616751267 L0.613676212741087 1.7713599715351063 L0.5720338983050846 1.8153201374384242 z"/>
<path fill="#bababa" stroke="#bababa" d="M0.711864406779661 -1.3152284263959388 L0.8125 -1.4035532994923854 L0.8076636904761904 -1.4610469543147204 z"/>
<path fill="#bababa" stroke="#bababa" d="M0.7483552631578947 1.6504899887196836 L0.7771739130434782 1.5960025380710656 L0.6762711864406779 1.6735421147724336 z"/>
<path fill="#bababa" stroke="#bababa" d="M-0.7101449275362317 -1.3417402880857823 L-0.802710843373494 -1.489793781725888 L-0.810678251121076 -1.432300126903553 z"/>
<path fill="#bababa" stroke="#bababa" d="M-0.09491525423728811 -1.8140153144627027 L-0.18055555555555552 -1.963747884940778 L-0.16949152542372875 -1.804138346382173 z"/>
<path fill="#bababa" stroke="#bababa" d="M-0.10156249999999999 -1.9734903994703155 L-0.18055555555555552 -1.963747884940778 L-0.09491525423728811 -1.814015314462703 z"/>
<path fill="#bababa" stroke="#bababa" d="M0.7483552631578947 -1.6271397349125771 L0.7140151515151514 -1.6785229529905092 L0.6485875706214689 -1.523666511405744 z"/>
<path fill="#bababa" stroke="#bababa" d="M-0.40624999999999994 -1.9018316412859557 L-0.3114406779661016 -1.768581261292265 L-0.33455882352941174 -1.9277601522842636 z"/>
<path fill="#bababa" stroke="#bababa" d="M-0.5932203389830507 -1.5936029741392967 L-0.5475880052151237 -1.6370529696865406 L-0.6469907407407406 -1.751189351906504 z"/>
<path fill="#bababa" stroke="#bababa" d="M-0.0949152542372881 -1.8140153144627027 L-0.019239578561612455 -1.818953798502968 L-0.10156249999999999 -1.9734903994703152 z"/>
<path fill="#bababa" stroke="#bababa" d="M0.711864406779661 1.5152284263959388 L0.8076636904761905 1.484397208121827 L0.8124999999999999 1.4269035532994923 z"/>
<path fill="#bababa" stroke="#bababa" d="M-0.3114406779661016 1.968581261292265 L-0.3781779661016948 1.9426317724261453 L-0.4062499999999999 1.9251818950930626 z"/>
<path fill="#bababa" stroke="#bababa" d="M0.5720338983050846 1.8153201374384242 L0.6229166666666665 1.796505620014503 L0.6711956521739129 1.7503053616751267 z"/>
<path fill="#bababa" stroke="#bababa" d="M0.29725609756097554 -1.938839051286539 L0.20606601248884918 -1.7970526953678798 L0.2768361581920903 -1.7791860059682023 z"/>
<path fill="#bababa" stroke="#bababa" d="M0.8076636904761906 -1.4610469543147204 L0.7959183673469388 -1.5169210695645954 L0.7071500729599282 -1.3691990019788347 z"/>
<path fill="#bababa" stroke="#bababa" d="M-0.6864406779661016 -1.447787734845157 L-0.6627703097603741 -1.4984012889803129 L-0.7632575757575757 -1.600674401740391 z"/>
<path fill="#bababa" stroke="#bababa" d="M-0.33455882352941163 -1.9277601522842638 L-0.31144067796610164 -1.768581261292265 L-0.24203389830508468 -1.789322894261378 z"/>
<path fill="#bababa" stroke="#bababa" d="M0.14130434782608692 -1.969216677583101 L0.06018518518518517 -1.9763120577603441 L0.05694915254237287 -1.816846160962771 z"/>
<path fill="#bababa" stroke="#bababa" d="M-0.4062499999999999 1.9251818950930626 L-0.3345588235294117 1.9511104060913704 L-0.3114406779661016 1.968581261292265 z"/>
<path fill="#bababa" stroke="#bababa" d="M-0.2420338983050847 1.9893228942613779 L-0.2585227272727272 1.9715802831952975 L-0.16949152542372878 2.004138346382173 z"/>
<path fill="#bababa" stroke="#bababa" d="M-0.802710843373494 1.5131440355329944 L-0.7101449275362317 1.5417402880857822 L-0.8106782511210762 1.4556503807106596 z"/>
<path fill="#bababa" stroke="#bababa" d="M0.37142857142857133 -1.9146080090242523 L0.29725609756097554 -1.938839051286539 L0.2768361581920903 -1.7791860059682023 z"/>
<path fill="#bababa" stroke="#bababa" d="M0.7118644067796609 -1.3152284263959388 L0.711864406779661 1.5152284263959388 L0.8125 1.4269035532994923 L0.8125 -1.4035532994923856 z"/>
<path fill="#bababa" stroke="#bababa" d="M0.676271186440678 -1.4735421147724332 L0.7771739130434782 -1.572652284263959 L0.7483552631578947 -1.6271397349125771 z"/>
<path fill="#bababa" stroke="#bababa" d="M-0.8106782511210762 1.4556503807106596 L-0.7101449275362318 1.5417402880857822 L-0.7101449275362318 -1.3417402880857823 L-0.810678251121076 -1.432300126903553 z"/>
<path fill="#bababa" stroke="#bababa" d="M0.05694915254237287 -1.816846160962771 L0.1318267419962335 -1.8097951553737492 L0.14130434782608692 -1.969216677583101 z"/>
<path fill="#bababa" stroke="#bababa" d="M-0.3114406779661016 1.968581261292265 L-0.3345588235294117 1.9511104060913704 L-0.2420338983050847 1.9893228942613779 z"/>
<path fill="#bababa" stroke="#bababa" d="M-0.6930147058823528 -1.7035201942176117 L-0.7312499999999998 -1.6535257117634075 L-0.630970724191063 -1.5477170596761058 z"/>
<path fill="#bababa" stroke="#bababa" d="M-0.5958333333333332 1.8178604060913703 L-0.536830357142857 1.858105964467005 L-0.49614791987673335 1.8765966281248945 z"/>
<path fill="#bababa" stroke="#bababa" d="M0.40986132511556234 -1.7273673672107808 L0.46833184656556637 -1.6947475423669882 L0.5058962264150941 -1.8535036415802246 z"/>
<path fill="#bababa" stroke="#bababa" d="M0.06018518518518518 1.9996623115674508 L-0.020833333333333332 2.001840101522842 L-0.1015625 1.9968406532774219 L-0.18055555555555555 1.9870981387478848 L-0.25852272727272724 1.9715802831952973 L-0.33455882352941174 1.9511104060913702 L-0.40625 1.9251818950930624 L-0.4739583333333333 1.894039498730964 L-0.5368303571428571 1.8581059644670048 L-0.5958333333333333 1.8178604060913701 L-0.6469907407407407 1.7745396057136107 L-0.6930147058823529 1.7268704480247183 L-0.73125 1.676875965570514 L-0.7632575757575757 1.6240246555474978 L-0.787109375 1.5682813930265453 L-0.802710843373494 1.5131440355329946 L-0.8106782511210762 1.4556503807106596 L-0.8106782511210762 -1.4323001269035531 L-0.802710843373494 -1.489793781725888 L-0.787109375 -1.5449311392194387 L-0.7632575757575757 -1.6006744017403913 L-0.73125 -1.6535257117634075 L-0.6930147058823529 -1.703520194217612 L-0.6469907407407407 -1.751189351906504 L-0.5958333333333333 -1.7945101522842635 L-0.5368303571428571 -1.8347557106598984 L-0.4739583333333333 -1.8706892449238577 L-0.40625 -1.9018316412859557 L-0.33455882352941174 -1.9277601522842636 L-0.25852272727272724 -1.948230029388191 L-0.18055555555555555 -1.9637478849407781 L-0.1015625 -1.9734903994703155 L-0.020833333333333332 -1.9784898477157358 L0.06018518518518518 -1.9763120577603441 L0.14130434782608695 -1.9692166775831013 L0.21959459459459457 -1.9571959014852411 L0.2972560975609756 -1.938839051286539 L0.3714285714285714 -1.914608009024252 L0.44010416666666663 -1.8864999999999994 L0.5058962264150942 -1.8535036415802246 L0.566860465116279 -1.8155911590524532 L0.6229166666666666 -1.7731553662073962 L0.671195652173913 -1.72695510786802 L0.7140151515151515 -1.6785229529905095 L0.7483552631578947 -1.6271397349125771 L0.7771739130434782 -1.572652284263959 L0.7959183673469388 -1.5169210695645952 L0.8076636904761905 -1.4610469543147204 L0.8125 -1.4035532994923856 L0.8125 1.4269035532994923 L0.8076636904761905 1.484397208121827 L0.7959183673469388 1.5402713233717018 L0.7771739130434782 1.5960025380710656 L0.7483552631578947 1.6504899887196838 L0.7140151515151515 1.701873206797616 L0.671195652173913 1.7503053616751267 L0.6229166666666666 1.7965056200145026 L0.566860465116279 1.8389414128595596 L0.5058962264150942 1.8768538953873313 L0.44010416666666663 1.909850253807106 L0.3714285714285714 1.937958262831359 L0.2972560975609756 1.9621893050936456 L0.21959459459459457 1.9805461552923478 L0.14130434782608695 1.9925669313902077 z"/>
<path fill="#bababa" stroke="#bababa" d="M0.2768361581920903 1.9791860059682023 L0.2060660124888492 1.9970526953678798 L0.2972560975609756 1.9621893050936459 z"/>
<path fill="#bababa" stroke="#bababa" d="M-0.7312500000000001 -1.6535257117634072 L-0.6627703097603741 -1.4984012889803129 L-0.6309707241910631 -1.5477170596761058 z"/>
<path fill="#bababa" stroke="#bababa" d="M-0.43968095712861405 -1.711012647337176 L-0.3781779661016948 -1.742631772426145 L-0.4739583333333332 -1.8706892449238575 z"/>
<path fill="#bababa" stroke="#bababa" d="M-0.10156249999999999 1.996840653277422 L-0.09491525423728811 2.0140153144627027 L-0.18055555555555552 1.9870981387478848 z"/>
<path fill="#bababa" stroke="#bababa" d="M-0.09491525423728811 2.0140153144627027 L-0.16949152542372878 2.004138346382173 L-0.18055555555555552 1.9870981387478848 z"/>
<path fill="#bababa" stroke="#bababa" d="M0.40986132511556234 1.927367367210781 L0.3444505194095133 1.9559881269895893 L0.4401041666666666 1.9098502538071063 z"/>
<path fill="#bababa" stroke="#bababa" d="M-0.019239578561612455 2.018953798502968 L-0.0949152542372881 2.0140153144627027 L-0.10156249999999999 1.996840653277422 z"/>
<path fill="#bababa" stroke="#bababa" d="M-0.10156249999999997 1.996840653277422 L-0.02083333333333333 2.0018401015228426 L-0.019239578561612455 2.018953798502968 z"/>
<path fill="#bababa" stroke="#bababa" d="M-0.019239578561612458 2.018953798502968 L0.05694915254237288 2.0168461609627713 L0.1318267419962335 2.009795155373749 L0.20606601248884923 1.9970526953678795 L0.27683615819209034 1.9791860059682023 L0.3444505194095134 1.9559881269895893 L0.4098613251155624 1.927367367210781 L0.4683318465655664 1.8947475423669884 L0.5234297108673978 1.85704207175428 L0.5720338983050847 1.815320137438424 L0.6136762127410871 1.7713599715351063 L0.6485875706214689 1.723666511405744 L0.676271186440678 1.6735421147724334 L0.6953094205754828 1.6212758731553132 L0.7071500729599282 1.5691990019788349 L0.711864406779661 1.515228426395939 L0.711864406779661 -1.3152284263959388 L0.7071500729599282 -1.3691990019788345 L0.6953094205754828 -1.4212758731553132 L0.676271186440678 -1.4735421147724335 L0.6485875706214689 -1.523666511405744 L0.6136762127410871 -1.5713599715351059 L0.5720338983050847 -1.615320137438424 L0.5234297108673978 -1.65704207175428 L0.4683318465655664 -1.694747542366988 L0.4098613251155624 -1.727367367210781 L0.3444505194095134 -1.7559881269895894 L0.27683615819209034 -1.7791860059682023 L0.20606601248884923 -1.7970526953678796 L0.1318267419962335 -1.8097951553737492 L0.05694915254237288 -1.8168461609627713 L-0.019239578561612458 -1.818953798502968 L-0.09491525423728812 -1.8140153144627027 L-0.1694915254237288 -1.804138346382173 L-0.24203389830508473 -1.7893228942613777 L-0.31144067796610164 -1.7685812612922651 L-0.3781779661016949 -1.7426317724261453 L-0.4396809571286141 -1.711012647337176 L-0.4961479198767334 -1.6765966281248943 L-0.5475880052151239 -1.6370529696865408 L-0.5932203389830508 -1.593602974139297 L-0.6309707241910631 -1.547717059676106 L-0.662770309760374 -1.498401288980313 L-0.6864406779661016 -1.447787734845157 L-0.7021128395635012 -1.3958244859330633 L-0.7101449275362318 -1.3417402880857823 L-0.7101449275362318 1.5417402880857822 L-0.7021128395635012 1.5958244859330637 L-0.6864406779661016 1.647787734845157 L-0.662770309760374 1.698401288980313 L-0.6309707241910631 1.747717059676106 L-0.5932203389830508 1.793602974139297 L-0.5475880052151239 1.8370529696865407 L-0.4961479198767334 1.8765966281248943 L-0.4396809571286141 1.911012647337176 L-0.3781779661016949 1.9426317724261453 L-0.31144067796610164 1.968581261292265 L-0.24203389830508473 1.9893228942613776 L-0.1694915254237288 2.004138346382173 L-0.09491525423728812 2.0140153144627027 z"/>
</svg>